<svg width="32" height="32" viewBox="0 0 32 32" fill="none" xmlns="http://www.w3.org/2000/svg">
<path d="M16 28.7999L15.377 28.4C12.4155 26.4953 8.66818 24.3426 5.89286 21.1786C2.96801 17.8453 1.56477 14.422 1.60077 10.712C1.64439 6.56928 5.09398 3.19995 9.29054 3.19995C12.6211 3.19995 14.8356 5.06662 16 6.41395C17.1644 5.06662 19.379 3.19995 22.7096 3.19995C26.9061 3.19995 30.3557 6.56928 30.3993 10.71C30.4381 14.422 29.0348 17.8433 26.1072 21.1766C23.3319 24.3426 19.5846 26.4953 16.6231 28.4L16 28.7999Z" fill="#9D47A3"/>
<path fill-rule="evenodd" clip-rule="evenodd" d="M16 28.7999L16.623 28.4C17.0154 28.1476 17.4216 27.8909 17.8375 27.628C20.5605 25.9071 23.6995 23.9231 26.1071 21.1766C29.0347 17.8433 30.438 14.422 30.3992 10.71C30.3556 6.56928 26.906 3.19995 22.7095 3.19995C19.379 3.19995 17.1644 5.06656 16 6.41389V28.7999Z" fill="#CEC4F7"/>
</svg>
