<svg width="743" height="79" viewBox="0 0 743 79" fill="none" xmlns="http://www.w3.org/2000/svg">
<path d="M193.626 71.9849L194.993 47.3755H202.205L207.947 68.9429H207.315L213.074 47.3755H220.303L221.67 71.9849H217.364L216.236 50.5884H216.287L210.288 71.9849H205.008L199.009 50.5884H199.06L197.915 71.9849H193.626Z" fill="#272839"/>
<path d="M231.309 72.4121C230.113 72.4121 229.036 72.1956 228.079 71.7627C227.122 71.3298 226.364 70.7031 225.806 69.8828C225.248 69.0511 224.969 68.0599 224.969 66.9092C224.969 65.6673 225.327 64.585 226.045 63.6621C226.774 62.7279 227.845 62.0044 229.258 61.4917C230.682 60.979 232.442 60.7227 234.539 60.7227H237.307L237 61.1328V60.0903C237 58.7687 236.749 57.7718 236.248 57.0996C235.747 56.4274 234.915 56.0913 233.753 56.0913C232.648 56.0913 231.799 56.3818 231.206 56.9629C230.614 57.5439 230.272 58.3472 230.181 59.3726L225.755 58.5352C225.903 57.5212 226.313 56.604 226.985 55.7837C227.669 54.9634 228.597 54.3083 229.771 53.8184C230.944 53.3285 232.357 53.0835 234.009 53.0835C235.581 53.0835 236.897 53.3512 237.957 53.8867C239.016 54.4222 239.808 55.2539 240.332 56.3818C240.868 57.4984 241.135 58.9453 241.135 60.7227V67.8149C241.135 68.2023 241.187 68.4587 241.289 68.584C241.403 68.7093 241.637 68.772 241.99 68.772H242.913V71.9849H240.708C239.592 71.9849 238.72 71.6886 238.094 71.0962C237.467 70.4923 237.154 69.6663 237.154 68.6182V67.5757L237.871 67.7808C237.712 68.2707 237.478 68.7834 237.171 69.3188C236.863 69.8543 236.453 70.3556 235.94 70.8228C235.427 71.2899 234.789 71.6715 234.026 71.9678C233.274 72.264 232.368 72.4121 231.309 72.4121ZM232.471 69.353C233.325 69.353 234.094 69.1536 234.778 68.7549C235.473 68.3447 236.02 67.7238 236.419 66.8921C236.829 66.049 237.034 64.9894 237.034 63.7134V63.4058H234.607C233.274 63.4058 232.232 63.5824 231.48 63.9355C230.728 64.2773 230.198 64.7046 229.89 65.2173C229.583 65.7186 229.429 66.2199 229.429 66.7212C229.429 67.1541 229.526 67.5757 229.719 67.9858C229.925 68.3846 230.249 68.715 230.694 68.9771C231.138 69.2277 231.73 69.353 232.471 69.353Z" fill="#272839"/>
<path d="M246.553 71.9849V53.5278H250.603V57.5952L250.449 57.0825C251.019 55.7495 251.839 54.7526 252.91 54.0918C253.981 53.431 255.121 53.1006 256.328 53.1006C256.67 53.1006 257.012 53.1291 257.354 53.186C257.707 53.243 258.043 53.3398 258.362 53.4766L257.986 57.1851C257.291 56.98 256.613 56.8774 255.952 56.8774C255.462 56.8774 254.916 56.9686 254.312 57.1509C253.719 57.3218 253.155 57.6465 252.62 58.125C252.084 58.6035 251.64 59.2928 251.287 60.1929C250.945 61.0815 250.774 62.238 250.774 63.6621V71.9849H246.553Z" fill="#272839"/>
<path d="M261.507 71.9849V53.5278H265.728V71.9849H261.507ZM263.609 50.9814C262.731 50.9814 262.014 50.7023 261.455 50.144C260.897 49.5858 260.618 48.868 260.618 47.9907C260.618 47.1021 260.897 46.3843 261.455 45.8374C262.014 45.2791 262.731 45 263.609 45C264.497 45 265.215 45.2791 265.762 45.8374C266.32 46.3843 266.599 47.1021 266.599 47.9907C266.599 48.868 266.32 49.5858 265.762 50.144C265.215 50.7023 264.497 50.9814 263.609 50.9814Z" fill="#272839"/>
<path d="M275.913 72.4121C274.717 72.4121 273.64 72.1956 272.683 71.7627C271.726 71.3298 270.969 70.7031 270.41 69.8828C269.852 69.0511 269.573 68.0599 269.573 66.9092C269.573 65.6673 269.932 64.585 270.65 63.6621C271.379 62.7279 272.45 62.0044 273.863 61.4917C275.287 60.979 277.047 60.7227 279.143 60.7227H281.912L281.604 61.1328V60.0903C281.604 58.7687 281.354 57.7718 280.852 57.0996C280.351 56.4274 279.519 56.0913 278.357 56.0913C277.252 56.0913 276.403 56.3818 275.811 56.9629C275.218 57.5439 274.877 58.3472 274.785 59.3726L270.359 58.5352C270.507 57.5212 270.917 56.604 271.59 55.7837C272.273 54.9634 273.202 54.3083 274.375 53.8184C275.549 53.3285 276.962 53.0835 278.614 53.0835C280.186 53.0835 281.502 53.3512 282.561 53.8867C283.621 54.4222 284.413 55.2539 284.937 56.3818C285.472 57.4984 285.74 58.9453 285.74 60.7227V67.8149C285.74 68.2023 285.791 68.4587 285.894 68.584C286.008 68.7093 286.241 68.772 286.594 68.772H287.517V71.9849H285.313C284.196 71.9849 283.325 71.6886 282.698 71.0962C282.071 70.4923 281.758 69.6663 281.758 68.6182V67.5757L282.476 67.7808C282.316 68.2707 282.083 68.7834 281.775 69.3188C281.468 69.8543 281.057 70.3556 280.545 70.8228C280.032 71.2899 279.394 71.6715 278.631 71.9678C277.879 72.264 276.973 72.4121 275.913 72.4121ZM277.075 69.353C277.93 69.353 278.699 69.1536 279.383 68.7549C280.078 68.3447 280.624 67.7238 281.023 66.8921C281.433 66.049 281.638 64.9894 281.638 63.7134V63.4058H279.212C277.879 63.4058 276.836 63.5824 276.084 63.9355C275.332 64.2773 274.802 64.7046 274.495 65.2173C274.187 65.7186 274.033 66.2199 274.033 66.7212C274.033 67.1541 274.13 67.5757 274.324 67.9858C274.529 68.3846 274.854 68.715 275.298 68.9771C275.742 69.2277 276.335 69.353 277.075 69.353Z" fill="#272839"/>
<path d="M296.78 71.9849L306.59 47.3755H311.887L321.663 71.9849H316.912L309.221 50.9644L301.531 71.9849H296.78ZM302.625 64.7388V61.167H315.784V64.7388H302.625Z" fill="#272839"/>
<path d="M331.25 72.4121C329.883 72.4121 328.607 72.207 327.422 71.7969C326.249 71.3753 325.263 70.7316 324.466 69.8657C323.679 68.9884 323.167 67.8662 322.927 66.499L326.944 65.7129C327.058 66.9092 327.473 67.8035 328.191 68.396C328.92 68.9884 329.889 69.2847 331.096 69.2847C332.293 69.2847 333.204 69.0226 333.831 68.4985C334.469 67.9744 334.788 67.3478 334.788 66.6187C334.788 65.9806 334.549 65.4508 334.07 65.0293C333.603 64.6077 332.851 64.3115 331.814 64.1406L329.917 63.8159C329.279 63.702 328.607 63.5539 327.901 63.3716C327.194 63.1779 326.528 62.9045 325.901 62.5513C325.274 62.1867 324.762 61.6968 324.363 61.0815C323.976 60.4549 323.782 59.6631 323.782 58.7061C323.782 57.487 324.107 56.4616 324.756 55.6299C325.406 54.7982 326.283 54.1715 327.388 53.75C328.504 53.3171 329.758 53.1006 331.148 53.1006C332.503 53.1006 333.717 53.3057 334.788 53.7158C335.87 54.1146 336.765 54.7013 337.471 55.4761C338.189 56.2508 338.656 57.2021 338.872 58.3301L334.805 59.1504C334.725 58.6035 334.56 58.1079 334.309 57.6636C334.059 57.2078 333.683 56.849 333.181 56.5869C332.691 56.3135 332.042 56.1768 331.233 56.1768C330.288 56.1768 329.507 56.3704 328.892 56.7578C328.277 57.1338 327.969 57.675 327.969 58.3813C327.969 58.8485 328.106 59.2358 328.379 59.5435C328.664 59.8397 329.063 60.0846 329.575 60.2783C330.088 60.472 330.692 60.6372 331.387 60.7739L333.438 61.167C334.406 61.3265 335.318 61.6056 336.172 62.0044C337.027 62.3918 337.716 62.9386 338.24 63.645C338.775 64.3514 339.043 65.2799 339.043 66.4307C339.043 67.7067 338.707 68.7948 338.035 69.6948C337.363 70.5835 336.44 71.2614 335.266 71.7285C334.093 72.1842 332.754 72.4121 331.25 72.4121Z" fill="#272839"/>
<path d="M350.015 72.4121C348.648 72.4121 347.372 72.207 346.187 71.7969C345.013 71.3753 344.028 70.7316 343.23 69.8657C342.444 68.9884 341.931 67.8662 341.692 66.499L345.708 65.7129C345.822 66.9092 346.238 67.8035 346.956 68.396C347.685 68.9884 348.653 69.2847 349.861 69.2847C351.057 69.2847 351.969 69.0226 352.595 68.4985C353.233 67.9744 353.552 67.3478 353.552 66.6187C353.552 65.9806 353.313 65.4508 352.835 65.0293C352.368 64.6077 351.616 64.3115 350.579 64.1406L348.682 63.8159C348.044 63.702 347.372 63.5539 346.665 63.3716C345.959 63.1779 345.292 62.9045 344.666 62.5513C344.039 62.1867 343.526 61.6968 343.128 61.0815C342.74 60.4549 342.547 59.6631 342.547 58.7061C342.547 57.487 342.871 56.4616 343.521 55.6299C344.17 54.7982 345.047 54.1715 346.153 53.75C347.269 53.3171 348.522 53.1006 349.912 53.1006C351.268 53.1006 352.482 53.3057 353.552 53.7158C354.635 54.1146 355.529 54.7013 356.236 55.4761C356.953 56.2508 357.42 57.2021 357.637 58.3301L353.57 59.1504C353.49 58.6035 353.325 58.1079 353.074 57.6636C352.823 57.2078 352.447 56.849 351.946 56.5869C351.456 56.3135 350.807 56.1768 349.998 56.1768C349.052 56.1768 348.272 56.3704 347.656 56.7578C347.041 57.1338 346.734 57.675 346.734 58.3813C346.734 58.8485 346.87 59.2358 347.144 59.5435C347.429 59.8397 347.827 60.0846 348.34 60.2783C348.853 60.472 349.457 60.6372 350.152 60.7739L352.202 61.167C353.171 61.3265 354.082 61.6056 354.937 62.0044C355.791 62.3918 356.481 62.9386 357.005 63.645C357.54 64.3514 357.808 65.2799 357.808 66.4307C357.808 67.7067 357.472 68.7948 356.8 69.6948C356.127 70.5835 355.205 71.2614 354.031 71.7285C352.857 72.1842 351.519 72.4121 350.015 72.4121Z" fill="#272839"/>
<path d="M367.669 72.4121C366.302 72.4121 365.151 72.1045 364.217 71.4893C363.294 70.8626 362.599 69.9854 362.132 68.8574C361.664 67.7295 361.431 66.4193 361.431 64.9268V53.5278H365.652V64.4653C365.652 65.9578 365.92 67.1086 366.455 67.9175C366.991 68.7264 367.879 69.1309 369.121 69.1309C369.942 69.1309 370.682 68.9201 371.343 68.4985C372.004 68.0656 372.534 67.3877 372.932 66.4648C373.331 65.542 373.531 64.3343 373.531 62.8418V53.5278H377.769V71.9849H373.701V67.644L373.821 68.4131C373.297 69.6208 372.511 70.5892 371.463 71.3184C370.426 72.0475 369.161 72.4121 367.669 72.4121Z" fill="#272839"/>
<path d="M382.793 71.9849V53.5278H386.844V56.5698C387.345 55.5444 388.08 54.7127 389.048 54.0747C390.028 53.4253 391.173 53.1006 392.483 53.1006C393.748 53.1006 394.824 53.4253 395.713 54.0747C396.613 54.7127 397.28 55.6413 397.713 56.8604C398.362 55.6413 399.199 54.7127 400.225 54.0747C401.25 53.4253 402.39 53.1006 403.643 53.1006C405.466 53.1006 406.878 53.75 407.881 55.0488C408.895 56.3477 409.402 58.1934 409.402 60.5859V71.9849H405.181V60.6372C405.181 59.8055 405.095 59.0706 404.925 58.4326C404.754 57.7946 404.463 57.2933 404.053 56.9287C403.643 56.5641 403.067 56.3818 402.327 56.3818C401.484 56.3818 400.755 56.6439 400.139 57.168C399.524 57.6807 399.046 58.4098 398.704 59.3555C398.373 60.2897 398.208 61.3949 398.208 62.6709V71.9849H393.987V60.6372C393.987 59.8055 393.902 59.0706 393.731 58.4326C393.56 57.7946 393.269 57.2933 392.859 56.9287C392.449 56.5641 391.885 56.3818 391.167 56.3818C390.324 56.3818 389.589 56.6382 388.963 57.1509C388.347 57.6636 387.869 58.3927 387.527 59.3384C387.185 60.2726 387.014 61.3892 387.014 62.688V71.9849H382.793Z" fill="#272839"/>
<path d="M414.204 78.6499V53.5278H418.203V57.2876L418.135 57.0142C418.716 55.6698 419.559 54.6842 420.664 54.0576C421.769 53.4196 422.977 53.1006 424.287 53.1006C425.825 53.1006 427.158 53.488 428.286 54.2627C429.426 55.0374 430.309 56.1483 430.935 57.5952C431.562 59.0422 431.875 60.7739 431.875 62.7905C431.875 64.7843 431.556 66.5047 430.918 67.9517C430.292 69.3872 429.409 70.4923 428.269 71.2671C427.13 72.0304 425.786 72.4121 424.236 72.4121C422.937 72.4121 421.73 72.1045 420.613 71.4893C419.508 70.8626 418.636 69.8372 417.998 68.4131L418.391 68.3276V78.6499H414.204ZM422.818 69.1309C424.173 69.1309 425.267 68.5669 426.099 67.439C426.931 66.311 427.346 64.7274 427.346 62.688C427.346 60.6942 426.942 59.1447 426.133 58.0396C425.324 56.9344 424.23 56.3818 422.852 56.3818C422.009 56.3818 421.234 56.6097 420.528 57.0654C419.833 57.5098 419.28 58.2048 418.87 59.1504C418.46 60.0846 418.255 61.2752 418.255 62.7222C418.255 64.8641 418.693 66.4705 419.571 67.5415C420.459 68.6011 421.542 69.1309 422.818 69.1309Z" fill="#272839"/>
<path d="M440.403 71.9849C439.287 71.9849 438.398 71.6886 437.737 71.0962C437.076 70.4923 436.746 69.6663 436.746 68.6182V56.7407H433.977V53.5278H436.746V49.8193L440.967 48.8281V53.5278H444.488V56.7407H440.967V67.8149C440.967 68.2023 441.018 68.4587 441.121 68.584C441.235 68.7093 441.468 68.772 441.822 68.772H444.641V71.9849H440.403Z" fill="#272839"/>
<path d="M453.34 72.4121C452.144 72.4121 451.067 72.1956 450.11 71.7627C449.153 71.3298 448.395 70.7031 447.837 69.8828C447.279 69.0511 447 68.0599 447 66.9092C447 65.6673 447.359 64.585 448.076 63.6621C448.806 62.7279 449.877 62.0044 451.289 61.4917C452.713 60.979 454.474 60.7227 456.57 60.7227H459.339L459.031 61.1328V60.0903C459.031 58.7687 458.78 57.7718 458.279 57.0996C457.778 56.4274 456.946 56.0913 455.784 56.0913C454.679 56.0913 453.83 56.3818 453.238 56.9629C452.645 57.5439 452.303 58.3472 452.212 59.3726L447.786 58.5352C447.934 57.5212 448.344 56.604 449.016 55.7837C449.7 54.9634 450.629 54.3083 451.802 53.8184C452.975 53.3285 454.388 53.0835 456.04 53.0835C457.613 53.0835 458.928 53.3512 459.988 53.8867C461.048 54.4222 461.839 55.2539 462.364 56.3818C462.899 57.4984 463.167 58.9453 463.167 60.7227V67.8149C463.167 68.2023 463.218 68.4587 463.321 68.584C463.434 68.7093 463.668 68.772 464.021 68.772H464.944V71.9849H462.74C461.623 71.9849 460.751 71.6886 460.125 71.0962C459.498 70.4923 459.185 69.6663 459.185 68.6182V67.5757L459.903 67.7808C459.743 68.2707 459.51 68.7834 459.202 69.3188C458.894 69.8543 458.484 70.3556 457.971 70.8228C457.459 71.2899 456.821 71.6715 456.057 71.9678C455.305 72.264 454.4 72.4121 453.34 72.4121ZM454.502 69.353C455.357 69.353 456.126 69.1536 456.809 68.7549C457.504 68.3447 458.051 67.7238 458.45 66.8921C458.86 66.049 459.065 64.9894 459.065 63.7134V63.4058H456.638C455.305 63.4058 454.263 63.5824 453.511 63.9355C452.759 64.2773 452.229 64.7046 451.922 65.2173C451.614 65.7186 451.46 66.2199 451.46 66.7212C451.46 67.1541 451.557 67.5757 451.751 67.9858C451.956 68.3846 452.281 68.715 452.725 68.9771C453.169 69.2277 453.762 69.353 454.502 69.353Z" fill="#272839"/>
<path d="M475.386 71.9849V68.3789H478.736V50.9814H475.386V47.3755H486.511V50.9814H483.162V68.3789H486.511V71.9849H475.386Z" fill="#272839"/>
<path d="M490.323 71.9849V53.5278H494.373V57.749L494.253 56.9971C494.789 55.835 495.575 54.895 496.612 54.1772C497.648 53.4595 498.907 53.1006 500.388 53.1006C501.767 53.1006 502.918 53.4139 503.841 54.0405C504.775 54.6558 505.475 55.5273 505.943 56.6553C506.421 57.7718 506.66 59.082 506.66 60.5859V71.9849H502.422V60.8765C502.422 59.4865 502.166 58.3927 501.653 57.5952C501.152 56.7863 500.303 56.3818 499.107 56.3818C497.728 56.3818 496.623 56.9401 495.791 58.0566C494.96 59.1732 494.544 60.8423 494.544 63.064V71.9849H490.323Z" fill="#272839"/>
<path d="M518.281 72.4121C516.914 72.4121 515.638 72.207 514.453 71.7969C513.28 71.3753 512.294 70.7316 511.497 69.8657C510.711 68.9884 510.198 67.8662 509.959 66.499L513.975 65.7129C514.089 66.9092 514.505 67.8035 515.222 68.396C515.952 68.9884 516.92 69.2847 518.128 69.2847C519.324 69.2847 520.235 69.0226 520.862 68.4985C521.5 67.9744 521.819 67.3478 521.819 66.6187C521.819 65.9806 521.58 65.4508 521.101 65.0293C520.634 64.6077 519.882 64.3115 518.845 64.1406L516.948 63.8159C516.31 63.702 515.638 63.5539 514.932 63.3716C514.225 63.1779 513.559 62.9045 512.932 62.5513C512.306 62.1867 511.793 61.6968 511.394 61.0815C511.007 60.4549 510.813 59.6631 510.813 58.7061C510.813 57.487 511.138 56.4616 511.787 55.6299C512.437 54.7982 513.314 54.1715 514.419 53.75C515.536 53.3171 516.789 53.1006 518.179 53.1006C519.535 53.1006 520.748 53.3057 521.819 53.7158C522.901 54.1146 523.796 54.7013 524.502 55.4761C525.22 56.2508 525.687 57.2021 525.904 58.3301L521.836 59.1504C521.756 58.6035 521.591 58.1079 521.341 57.6636C521.09 57.2078 520.714 56.849 520.213 56.5869C519.723 56.3135 519.073 56.1768 518.264 56.1768C517.319 56.1768 516.538 56.3704 515.923 56.7578C515.308 57.1338 515 57.675 515 58.3813C515 58.8485 515.137 59.2358 515.41 59.5435C515.695 59.8397 516.094 60.0846 516.607 60.2783C517.119 60.472 517.723 60.6372 518.418 60.7739L520.469 61.167C521.437 61.3265 522.349 61.6056 523.203 62.0044C524.058 62.3918 524.747 62.9386 525.271 63.645C525.807 64.3514 526.074 65.2799 526.074 66.4307C526.074 67.7067 525.738 68.7948 525.066 69.6948C524.394 70.5835 523.471 71.2614 522.298 71.7285C521.124 72.1842 519.785 72.4121 518.281 72.4121Z" fill="#272839"/>
<path d="M534.602 71.9849C533.486 71.9849 532.597 71.6886 531.936 71.0962C531.275 70.4923 530.945 69.6663 530.945 68.6182V56.7407H528.177V53.5278H530.945V49.8193L535.166 48.8281V53.5278H538.687V56.7407H535.166V67.8149C535.166 68.2023 535.218 68.4587 535.32 68.584C535.434 68.7093 535.668 68.772 536.021 68.772H538.841V71.9849H534.602Z" fill="#272839"/>
<path d="M542.669 71.9849V53.5278H546.89V71.9849H542.669ZM544.771 50.9814C543.893 50.9814 543.176 50.7023 542.617 50.144C542.059 49.5858 541.78 48.868 541.78 47.9907C541.78 47.1021 542.059 46.3843 542.617 45.8374C543.176 45.2791 543.893 45 544.771 45C545.659 45 546.377 45.2791 546.924 45.8374C547.482 46.3843 547.761 47.1021 547.761 47.9907C547.761 48.868 547.482 49.5858 546.924 50.144C546.377 50.7023 545.659 50.9814 544.771 50.9814Z" fill="#272839"/>
<path d="M556.887 71.9849C555.771 71.9849 554.882 71.6886 554.221 71.0962C553.561 70.4923 553.23 69.6663 553.23 68.6182V56.7407H550.462V53.5278H553.23V49.8193L557.451 48.8281V53.5278H560.972V56.7407H557.451V67.8149C557.451 68.2023 557.503 68.4587 557.605 68.584C557.719 68.7093 557.953 68.772 558.306 68.772H561.126V71.9849H556.887Z" fill="#272839"/>
<path d="M570.73 72.4121C569.363 72.4121 568.212 72.1045 567.278 71.4893C566.355 70.8626 565.66 69.9854 565.193 68.8574C564.726 67.7295 564.492 66.4193 564.492 64.9268V53.5278H568.714V64.4653C568.714 65.9578 568.981 67.1086 569.517 67.9175C570.052 68.7264 570.941 69.1309 572.183 69.1309C573.003 69.1309 573.744 68.9201 574.405 68.4985C575.065 68.0656 575.595 67.3877 575.994 66.4648C576.393 65.542 576.592 64.3343 576.592 62.8418V53.5278H580.83V71.9849H576.763V67.644L576.883 68.4131C576.358 69.6208 575.572 70.5892 574.524 71.3184C573.487 72.0475 572.223 72.4121 570.73 72.4121Z" fill="#272839"/>
<path d="M591.853 72.4121C590.486 72.4121 589.335 72.1045 588.401 71.4893C587.478 70.8626 586.783 69.9854 586.316 68.8574C585.849 67.7295 585.615 66.4193 585.615 64.9268V53.5278H589.837V64.4653C589.837 65.9578 590.104 67.1086 590.64 67.9175C591.175 68.7264 592.064 69.1309 593.306 69.1309C594.126 69.1309 594.867 68.9201 595.528 68.4985C596.188 68.0656 596.718 67.3877 597.117 66.4648C597.516 65.542 597.715 64.3343 597.715 62.8418V53.5278H601.953V71.9849H597.886V67.644L598.006 68.4131C597.482 69.6208 596.695 70.5892 595.647 71.3184C594.61 72.0475 593.346 72.4121 591.853 72.4121Z" fill="#272839"/>
<path d="M611.917 71.9849C610.8 71.9849 609.912 71.6886 609.251 71.0962C608.59 70.4923 608.26 69.6663 608.26 68.6182V56.7407H605.491V53.5278H608.26V49.8193L612.481 48.8281V53.5278H616.001V56.7407H612.481V67.8149C612.481 68.2023 612.532 68.4587 612.635 68.584C612.748 68.7093 612.982 68.772 613.335 68.772H616.155V71.9849H611.917Z" fill="#272839"/>
<path d="M638.816 72.4121C636.321 72.4121 634.162 71.8994 632.339 70.874C630.528 69.8372 629.132 68.3675 628.152 66.4648C627.172 64.5622 626.682 62.3006 626.682 59.6802C626.682 57.0597 627.172 54.7982 628.152 52.8955C629.132 50.9928 630.528 49.5288 632.339 48.5034C634.162 47.4666 636.321 46.9482 638.816 46.9482C641.311 46.9482 643.465 47.4666 645.276 48.5034C647.099 49.5288 648.5 50.9928 649.48 52.8955C650.46 54.7982 650.95 57.0597 650.95 59.6802C650.95 62.3006 650.46 64.5622 649.48 66.4648C648.5 68.3675 647.099 69.8372 645.276 70.874C643.465 71.8994 641.311 72.4121 638.816 72.4121ZM638.816 68.7036C640.366 68.7036 641.693 68.3447 642.798 67.627C643.915 66.8978 644.769 65.861 645.362 64.5166C645.954 63.1608 646.25 61.5487 646.25 59.6802C646.25 57.8003 645.954 56.1882 645.362 54.8438C644.769 53.4993 643.915 52.4683 642.798 51.7505C641.693 51.0213 640.366 50.6567 638.816 50.6567C637.278 50.6567 635.951 51.0213 634.834 51.7505C633.729 52.4683 632.875 53.4993 632.271 54.8438C631.678 56.1882 631.382 57.8003 631.382 59.6802C631.382 61.5487 631.678 63.1608 632.271 64.5166C632.875 65.861 633.729 66.8978 634.834 67.627C635.951 68.3447 637.278 68.7036 638.816 68.7036Z" fill="#272839"/>
<path d="M654.829 78.6499V53.5278H658.828V57.2876L658.76 57.0142C659.341 55.6698 660.184 54.6842 661.289 54.0576C662.394 53.4196 663.602 53.1006 664.912 53.1006C666.45 53.1006 667.783 53.488 668.911 54.2627C670.051 55.0374 670.934 56.1483 671.56 57.5952C672.187 59.0422 672.5 60.7739 672.5 62.7905C672.5 64.7843 672.181 66.5047 671.543 67.9517C670.917 69.3872 670.034 70.4923 668.894 71.2671C667.755 72.0304 666.411 72.4121 664.861 72.4121C663.562 72.4121 662.355 72.1045 661.238 71.4893C660.133 70.8626 659.261 69.8372 658.623 68.4131L659.016 68.3276V78.6499H654.829ZM663.443 69.1309C664.798 69.1309 665.892 68.5669 666.724 67.439C667.556 66.311 667.971 64.7274 667.971 62.688C667.971 60.6942 667.567 59.1447 666.758 58.0396C665.949 56.9344 664.855 56.3818 663.477 56.3818C662.634 56.3818 661.859 56.6097 661.153 57.0654C660.458 57.5098 659.905 58.2048 659.495 59.1504C659.085 60.0846 658.88 61.2752 658.88 62.7222C658.88 64.8641 659.318 66.4705 660.196 67.5415C661.084 68.6011 662.167 69.1309 663.443 69.1309Z" fill="#272839"/>
<path d="M679.353 71.9849L674.619 53.5278H679.029L682.566 69.5752H682.088L685.967 53.5278H691.555L695.452 69.6606H694.888L698.477 53.5278H702.732L697.981 71.9849H692.085L688.308 55.4761H689.06L685.249 71.9849H679.353Z" fill="#272839"/>
<path d="M706.184 71.9849V53.5278H710.406V71.9849H706.184ZM708.286 50.9814C707.409 50.9814 706.691 50.7023 706.133 50.144C705.575 49.5858 705.296 48.868 705.296 47.9907C705.296 47.1021 705.575 46.3843 706.133 45.8374C706.691 45.2791 707.409 45 708.286 45C709.175 45 709.893 45.2791 710.44 45.8374C710.998 46.3843 711.277 47.1021 711.277 47.9907C711.277 48.868 710.998 49.5858 710.44 50.144C709.893 50.7023 709.175 50.9814 708.286 50.9814Z" fill="#272839"/>
<path d="M713.379 78.6499V75.437H715.225C715.589 75.437 715.823 75.3743 715.926 75.249C716.028 75.1237 716.079 74.8673 716.079 74.48V53.5278H720.318V75.2832C720.318 76.3314 719.987 77.1517 719.326 77.7441C718.666 78.348 717.771 78.6499 716.643 78.6499H713.379ZM718.216 50.9814C717.338 50.9814 716.621 50.7023 716.062 50.144C715.504 49.5858 715.225 48.868 715.225 47.9907C715.225 47.1021 715.504 46.3843 716.062 45.8374C716.621 45.2791 717.338 45 718.216 45C719.104 45 719.822 45.2791 720.369 45.8374C720.927 46.3843 721.206 47.1021 721.206 47.9907C721.206 48.868 720.927 49.5858 720.369 50.144C719.822 50.7023 719.104 50.9814 718.216 50.9814Z" fill="#272839"/>
<path d="M725.462 71.9849V46.3501H729.683V61.0815L737.407 53.5278H742.483L735.288 60.4834L742.705 71.9849H737.903L732.383 63.3716L729.683 65.9692V71.9849H725.462Z" fill="#272839"/>
<path d="M286.895 32.9235L288.165 10.0643H292.863L299.34 30.8598H298.705L305.213 10.0643H309.912L311.182 32.9235H308.42L307.308 12.2232H307.356L300.642 32.9235H297.467L290.72 12.2232H290.768L289.657 32.9235H286.895Z" fill="#272839"/>
<path d="M323.99 33.3045C322.361 33.3045 320.948 32.9394 319.752 32.2091C318.567 31.4789 317.652 30.4471 317.006 29.1136C316.36 27.7696 316.038 26.1874 316.038 24.3672C316.038 22.5363 316.36 20.9489 317.006 19.6048C317.652 18.2608 318.562 17.2236 319.736 16.4934C320.911 15.7632 322.292 15.3981 323.879 15.3981C324.789 15.3981 325.699 15.5462 326.61 15.8426C327.53 16.1283 328.366 16.631 329.118 17.3506C329.88 18.0597 330.488 19.0386 330.943 20.2874C331.409 21.5256 331.642 23.0919 331.642 24.9863H317.752V22.8273H329.324L328.562 23.8274C328.509 22.3246 328.266 21.1182 327.832 20.208C327.398 19.2979 326.832 18.6418 326.133 18.2396C325.446 17.8269 324.678 17.6205 323.832 17.6205C322.826 17.6205 321.959 17.8851 321.228 18.4142C320.498 18.9328 319.937 19.6948 319.546 20.7002C319.154 21.7055 318.958 22.9332 318.958 24.383C318.958 26.5208 319.392 28.1717 320.26 29.3359C321.138 30.5 322.382 31.0821 323.99 31.0821C325.144 31.0821 326.112 30.791 326.895 30.209C327.689 29.6269 328.271 28.7855 328.641 27.6849L331.261 28.5739C330.848 29.5687 330.298 30.4206 329.61 31.1297C328.922 31.8282 328.102 32.3679 327.149 32.7489C326.207 33.1193 325.154 33.3045 323.99 33.3045Z" fill="#272839"/>
<path d="M340.101 32.9235C339.424 32.9235 338.831 32.7012 338.323 32.2568C337.815 31.8017 337.561 31.2302 337.561 30.5423V18.0015H334.799V15.7791H337.561V12.1914L340.228 11.62V15.7791H343.625V18.0015H340.228V29.828C340.228 30.1772 340.276 30.41 340.371 30.5264C340.477 30.6429 340.694 30.7011 341.022 30.7011H343.641V32.9235H340.101Z" fill="#272839"/>
<path d="M362.734 33.3045C361.591 33.3045 360.597 33.0875 359.75 32.6536C358.914 32.2091 358.268 31.6059 357.813 30.8439C357.358 30.082 357.131 29.2194 357.131 28.2564C357.131 27.2298 357.432 26.2827 358.036 25.4149C358.639 24.5471 359.57 23.8539 360.829 23.3353C362.099 22.8062 363.724 22.5416 365.703 22.5416H368.56L368.274 22.8273V21.8907C368.274 20.5149 367.999 19.4619 367.449 18.7317C366.898 17.9909 365.978 17.6205 364.687 17.6205C363.47 17.6205 362.533 17.938 361.877 18.573C361.221 19.1974 360.872 20.0387 360.829 21.097L357.829 20.4144C357.925 19.4937 358.274 18.6576 358.877 17.9062C359.491 17.1443 360.306 16.5357 361.322 16.0807C362.348 15.6256 363.533 15.3981 364.877 15.3981C366.264 15.3981 367.391 15.6627 368.258 16.1918C369.137 16.7104 369.782 17.4618 370.195 18.446C370.608 19.4302 370.814 20.6155 370.814 22.0019V29.828C370.814 30.1772 370.862 30.41 370.957 30.5264C371.063 30.6429 371.28 30.7011 371.608 30.7011H372.576V32.9235H370.877C370.158 32.9235 369.555 32.7012 369.068 32.2568C368.581 31.8017 368.338 31.2302 368.338 30.5423V29.3359H368.735C368.565 29.7803 368.322 30.2354 368.004 30.7011C367.687 31.1561 367.285 31.5847 366.798 31.9869C366.311 32.3785 365.729 32.696 365.052 32.9394C364.385 33.1828 363.613 33.3045 362.734 33.3045ZM363.337 31.0821C364.216 31.0821 365.031 30.8651 365.782 30.4312C366.533 29.9973 367.137 29.32 367.592 28.3993C368.057 27.468 368.29 26.2615 368.29 24.7799V24.637H365.607C364.2 24.637 363.089 24.8222 362.274 25.1926C361.47 25.563 360.898 26.0234 360.56 26.5737C360.221 27.1134 360.052 27.6532 360.052 28.1929C360.052 28.7326 360.173 29.2194 360.417 29.6534C360.66 30.0873 361.025 30.4365 361.512 30.7011C361.999 30.9551 362.607 31.0821 363.337 31.0821Z" fill="#272839"/>
<path d="M381.972 33.3045C380.829 33.3045 379.834 33.0875 378.988 32.6536C378.152 32.2091 377.506 31.6059 377.051 30.8439C376.596 30.082 376.368 29.2194 376.368 28.2564C376.368 27.2298 376.67 26.2827 377.273 25.4149C377.876 24.5471 378.808 23.8539 380.067 23.3353C381.337 22.8062 382.961 22.5416 384.94 22.5416H387.798L387.512 22.8273V21.8907C387.512 20.5149 387.237 19.4619 386.686 18.7317C386.136 17.9909 385.215 17.6205 383.924 17.6205C382.707 17.6205 381.771 17.938 381.115 18.573C380.459 19.1974 380.109 20.0387 380.067 21.097L377.067 20.4144C377.162 19.4937 377.511 18.6576 378.115 17.9062C378.728 17.1443 379.543 16.5357 380.559 16.0807C381.586 15.6256 382.771 15.3981 384.115 15.3981C385.501 15.3981 386.628 15.6627 387.496 16.1918C388.374 16.7104 389.02 17.4618 389.433 18.446C389.845 19.4302 390.052 20.6155 390.052 22.0019V29.828C390.052 30.1772 390.099 30.41 390.194 30.5264C390.3 30.6429 390.517 30.7011 390.845 30.7011H391.814V32.9235H390.115C389.396 32.9235 388.792 32.7012 388.306 32.2568C387.819 31.8017 387.575 31.2302 387.575 30.5423V29.3359H387.972C387.803 29.7803 387.559 30.2354 387.242 30.7011C386.924 31.1561 386.522 31.5847 386.036 31.9869C385.549 32.3785 384.967 32.696 384.289 32.9394C383.623 33.1828 382.85 33.3045 381.972 33.3045ZM382.575 31.0821C383.453 31.0821 384.268 30.8651 385.02 30.4312C385.771 29.9973 386.374 29.32 386.829 28.3993C387.295 27.468 387.528 26.2615 387.528 24.7799V24.637H384.845C383.438 24.637 382.326 24.8222 381.512 25.1926C380.707 25.563 380.136 26.0234 379.797 26.5737C379.459 27.1134 379.289 27.6532 379.289 28.1929C379.289 28.7326 379.411 29.2194 379.654 29.6534C379.898 30.0873 380.263 30.4365 380.75 30.7011C381.236 30.9551 381.845 31.0821 382.575 31.0821Z" fill="#272839"/>
<path d="M396.813 32.9235V15.7791H399.321V19.6524L399.209 18.954C399.664 17.9697 400.384 17.1337 401.368 16.4458C402.352 15.7473 403.548 15.3981 404.956 15.3981C406.173 15.3981 407.22 15.6679 408.099 16.2077C408.977 16.7474 409.654 17.52 410.131 18.5253C410.607 19.5201 410.845 20.7213 410.845 22.1289V32.9235H408.178V22.3352C408.178 20.9277 407.887 19.79 407.305 18.9222C406.734 18.0544 405.786 17.6205 404.464 17.6205C403.035 17.6205 401.844 18.1655 400.892 19.2556C399.95 20.335 399.479 21.9013 399.479 23.9544V32.9235H396.813Z" fill="#272839"/>
<path d="M423.146 33.3045C421.759 33.3045 420.532 32.9394 419.463 32.2091C418.405 31.4789 417.579 30.4418 416.987 29.0977C416.394 27.7537 416.098 26.1663 416.098 24.3354C416.098 22.5045 416.394 20.9224 416.987 19.5889C417.59 18.2449 418.421 17.2131 419.479 16.4934C420.537 15.7632 421.759 15.3981 423.146 15.3981C424.267 15.3981 425.379 15.6785 426.479 16.2394C427.58 16.8003 428.41 17.7475 428.971 19.081L428.67 19.208V9.11179H431.337V32.9235H428.828V29.3517L428.908 29.6057C428.442 30.8545 427.67 31.7858 426.59 32.3996C425.511 33.0029 424.363 33.3045 423.146 33.3045ZM423.844 31.0821C424.744 31.0821 425.564 30.8492 426.305 30.3836C427.045 29.9179 427.638 29.193 428.082 28.2088C428.527 27.214 428.749 25.944 428.749 24.3989C428.749 22.0918 428.273 20.388 427.32 19.2873C426.368 18.1761 425.22 17.6205 423.876 17.6205C422.458 17.6205 421.294 18.2079 420.384 19.3826C419.474 20.5467 419.019 22.2188 419.019 24.3989C419.019 26.5155 419.458 28.1611 420.336 29.3359C421.214 30.5 422.384 31.0821 423.844 31.0821Z" fill="#272839"/>
<path d="M442.225 33.3045C441.082 33.3045 440.087 33.0875 439.24 32.6536C438.404 32.2091 437.759 31.6059 437.304 30.8439C436.849 30.082 436.621 29.2194 436.621 28.2564C436.621 27.2298 436.923 26.2827 437.526 25.4149C438.129 24.5471 439.06 23.8539 440.32 23.3353C441.59 22.8062 443.214 22.5416 445.193 22.5416H448.05L447.765 22.8273V21.8907C447.765 20.5149 447.489 19.4619 446.939 18.7317C446.389 17.9909 445.468 17.6205 444.177 17.6205C442.96 17.6205 442.024 17.938 441.367 18.573C440.711 19.1974 440.362 20.0387 440.32 21.097L437.32 20.4144C437.415 19.4937 437.764 18.6576 438.367 17.9062C438.981 17.1443 439.796 16.5357 440.812 16.0807C441.838 15.6256 443.024 15.3981 444.368 15.3981C445.754 15.3981 446.881 15.6627 447.749 16.1918C448.627 16.7104 449.273 17.4618 449.685 18.446C450.098 19.4302 450.304 20.6155 450.304 22.0019V29.828C450.304 30.1772 450.352 30.41 450.447 30.5264C450.553 30.6429 450.77 30.7011 451.098 30.7011H452.066V32.9235H450.368C449.648 32.9235 449.045 32.7012 448.558 32.2568C448.071 31.8017 447.828 31.2302 447.828 30.5423V29.3359H448.225C448.056 29.7803 447.812 30.2354 447.495 30.7011C447.177 31.1561 446.775 31.5847 446.288 31.9869C445.801 32.3785 445.219 32.696 444.542 32.9394C443.875 33.1828 443.103 33.3045 442.225 33.3045ZM442.828 31.0821C443.706 31.0821 444.521 30.8651 445.272 30.4312C446.024 29.9973 446.627 29.32 447.082 28.3993C447.548 27.468 447.78 26.2615 447.78 24.7799V24.637H445.098C443.69 24.637 442.579 24.8222 441.764 25.1926C440.96 25.563 440.389 26.0234 440.05 26.5737C439.711 27.1134 439.542 27.6532 439.542 28.1929C439.542 28.7326 439.664 29.2194 439.907 29.6534C440.15 30.0873 440.516 30.4365 441.002 30.7011C441.489 30.9551 442.098 31.0821 442.828 31.0821Z" fill="#272839"/>
<path d="M463.907 33.3045C462.298 33.3045 460.907 32.9394 459.732 32.2091C458.557 31.4789 457.653 30.4471 457.018 29.1136C456.383 27.7696 456.065 26.1821 456.065 24.3513C456.065 22.5204 456.383 20.9383 457.018 19.6048C457.653 18.2608 458.557 17.2236 459.732 16.4934C460.907 15.7632 462.298 15.3981 463.907 15.3981C465.134 15.3981 466.23 15.6256 467.193 16.0807C468.166 16.5252 468.986 17.1707 469.653 18.0174C470.33 18.8534 470.828 19.8641 471.145 21.0494L468.431 21.7637C468.134 20.4303 467.6 19.409 466.828 18.7C466.066 17.9803 465.092 17.6205 463.907 17.6205C462.33 17.6205 461.113 18.2079 460.256 19.3826C459.409 20.5467 458.986 22.2029 458.986 24.3513C458.986 26.5102 459.409 28.1717 460.256 29.3359C461.113 30.5 462.33 31.0821 463.907 31.0821C465.081 31.0821 466.05 30.7381 466.812 30.0502C467.574 29.3517 468.108 28.3464 468.415 27.0341L471.113 27.796C470.859 28.6638 470.51 29.4364 470.066 30.1137C469.621 30.791 469.092 31.3678 468.478 31.844C467.875 32.3203 467.187 32.6801 466.415 32.9235C465.653 33.1775 464.817 33.3045 463.907 33.3045Z" fill="#272839"/>
<path d="M476.319 32.9235V9.11179H478.986V19.8112L478.716 19.1127C479.16 18.0438 479.874 17.1601 480.859 16.4617C481.853 15.7526 483.065 15.3981 484.494 15.3981C485.7 15.3981 486.737 15.6679 487.605 16.2077C488.483 16.7474 489.161 17.52 489.637 18.5253C490.113 19.5201 490.351 20.7213 490.351 22.1289V32.9235H487.684V22.3352C487.684 20.8854 487.409 19.7371 486.859 18.8905C486.319 18.0438 485.356 17.6205 483.97 17.6205C482.488 17.6205 481.287 18.1497 480.367 19.208C479.446 20.2557 478.986 21.8378 478.986 23.9544V32.9235H476.319Z" fill="#272839"/>
<path d="M499.715 32.9235C499.038 32.9235 498.445 32.7012 497.937 32.2568C497.429 31.8017 497.175 31.2302 497.175 30.5423V18.0015H494.413V15.7791H497.175V12.1914L499.842 11.62V15.7791H503.239V18.0015H499.842V29.828C499.842 30.1772 499.89 30.41 499.985 30.5264C500.091 30.6429 500.308 30.7011 500.636 30.7011H503.255V32.9235H499.715Z" fill="#272839"/>
<path d="M522.682 32.9235L516.237 15.7791H519.19L524.634 31.4154H524.126L529.539 15.7791H532.492L526.079 32.9235H522.682Z" fill="#272839"/>
<path d="M543.761 33.3045C542.152 33.3045 540.734 32.9288 539.507 32.1774C538.279 31.4154 537.322 30.3624 536.634 29.0184C535.946 27.6743 535.602 26.1186 535.602 24.3513C535.602 22.5839 535.946 21.0282 536.634 19.6842C537.322 18.3401 538.279 17.2924 539.507 16.541C540.734 15.7791 542.152 15.3981 543.761 15.3981C545.369 15.3981 546.788 15.7791 548.015 16.541C549.243 17.2924 550.2 18.3401 550.888 19.6842C551.576 21.0282 551.92 22.5839 551.92 24.3513C551.92 26.1186 551.576 27.6743 550.888 29.0184C550.2 30.3624 549.243 31.4154 548.015 32.1774C546.788 32.9288 545.369 33.3045 543.761 33.3045ZM543.761 31.0821C545.38 31.0821 546.655 30.4788 547.586 29.2724C548.528 28.0659 548.999 26.4255 548.999 24.3513C548.999 22.2664 548.528 20.6261 547.586 19.4302C546.655 18.2237 545.38 17.6205 543.761 17.6205C542.142 17.6205 540.861 18.2237 539.919 19.4302C538.988 20.6261 538.523 22.2664 538.523 24.3513C538.523 26.4255 538.988 28.0659 539.919 29.2724C540.861 30.4788 542.142 31.0821 543.761 31.0821Z" fill="#272839"/>
<path d="M565.126 33.3045C563.517 33.3045 562.099 32.9288 560.871 32.1774C559.644 31.4154 558.686 30.3624 557.998 29.0184C557.31 27.6743 556.967 26.1186 556.967 24.3513C556.967 22.5839 557.31 21.0282 557.998 19.6842C558.686 18.3401 559.644 17.2924 560.871 16.541C562.099 15.7791 563.517 15.3981 565.126 15.3981C566.734 15.3981 568.152 15.7791 569.38 16.541C570.607 17.2924 571.565 18.3401 572.253 19.6842C572.941 21.0282 573.285 22.5839 573.285 24.3513C573.285 26.1186 572.941 27.6743 572.253 29.0184C571.565 30.3624 570.607 31.4154 569.38 32.1774C568.152 32.9288 566.734 33.3045 565.126 33.3045ZM565.126 31.0821C566.745 31.0821 568.02 30.4788 568.951 29.2724C569.893 28.0659 570.364 26.4255 570.364 24.3513C570.364 22.2664 569.893 20.6261 568.951 19.4302C568.02 18.2237 566.745 17.6205 565.126 17.6205C563.507 17.6205 562.226 18.2237 561.284 19.4302C560.353 20.6261 559.887 22.2664 559.887 24.3513C559.887 26.4255 560.353 28.0659 561.284 29.2724C562.226 30.4788 563.507 31.0821 565.126 31.0821Z" fill="#272839"/>
<path d="M578.553 32.9235V15.7791H581.062V19.4143L580.966 19.0016C581.474 17.8163 582.236 16.922 583.252 16.3188C584.279 15.705 585.316 15.3981 586.363 15.3981C586.67 15.3981 586.967 15.4245 587.252 15.4775C587.549 15.5304 587.824 15.6203 588.078 15.7473L587.728 18.2555C587.146 18.0756 586.57 17.9856 585.998 17.9856C585.638 17.9856 585.189 18.0597 584.649 18.2079C584.12 18.3454 583.591 18.6312 583.062 19.0651C582.543 19.4884 582.104 20.1234 581.744 20.97C581.395 21.8167 581.22 22.9437 581.22 24.3513V32.9235H578.553Z" fill="#272839"/>
<path d="M602.473 32.9235V15.7791H605.139V32.9235H602.473ZM603.806 12.9058C603.192 12.9058 602.668 12.6888 602.234 12.2549C601.801 11.821 601.584 11.2972 601.584 10.6834C601.584 10.059 601.801 9.53511 602.234 9.11179C602.668 8.67789 603.192 8.46094 603.806 8.46094C604.43 8.46094 604.954 8.67789 605.378 9.11179C605.811 9.53511 606.028 10.059 606.028 10.6834C606.028 11.2972 605.811 11.821 605.378 12.2549C604.954 12.6888 604.43 12.9058 603.806 12.9058Z" fill="#272839"/>
<path d="M618.488 33.3045C616.858 33.3045 615.445 32.9394 614.25 32.2091C613.064 31.4789 612.149 30.4471 611.503 29.1136C610.858 27.7696 610.535 26.1874 610.535 24.3672C610.535 22.5363 610.858 20.9489 611.503 19.6048C612.149 18.2608 613.059 17.2236 614.234 16.4934C615.408 15.7632 616.789 15.3981 618.377 15.3981C619.287 15.3981 620.197 15.5462 621.107 15.8426C622.028 16.1283 622.864 16.631 623.615 17.3506C624.377 18.0597 624.986 19.0386 625.441 20.2874C625.906 21.5256 626.139 23.0919 626.139 24.9863H612.25V22.8273H623.821L623.06 23.8274C623.007 22.3246 622.763 21.1182 622.329 20.208C621.895 19.2979 621.329 18.6418 620.631 18.2396C619.943 17.8269 619.176 17.6205 618.329 17.6205C617.324 17.6205 616.456 17.8851 615.726 18.4142C614.996 18.9328 614.435 19.6948 614.043 20.7002C613.652 21.7055 613.456 22.9332 613.456 24.383C613.456 26.5208 613.89 28.1717 614.758 29.3359C615.636 30.5 616.879 31.0821 618.488 31.0821C619.641 31.0821 620.61 30.791 621.393 30.209C622.186 29.6269 622.768 28.7855 623.139 27.6849L625.758 28.5739C625.345 29.5687 624.795 30.4206 624.107 31.1297C623.419 31.8282 622.599 32.3679 621.647 32.7489C620.705 33.1193 619.652 33.3045 618.488 33.3045Z" fill="#272839"/>
<path d="M637.995 33.3045C636.609 33.3045 635.381 32.9394 634.313 32.2091C633.254 31.4789 632.429 30.4418 631.836 29.0977C631.244 27.7537 630.947 26.1663 630.947 24.3354C630.947 22.5045 631.244 20.9224 631.836 19.5889C632.44 18.2449 633.27 17.2131 634.329 16.4934C635.387 15.7632 636.609 15.3981 637.995 15.3981C639.117 15.3981 640.228 15.6785 641.329 16.2394C642.429 16.8003 643.26 17.7475 643.821 19.081L643.519 19.208V9.11179H646.186V32.9235H643.678V29.3517L643.757 29.6057C643.292 30.8545 642.519 31.7858 641.44 32.3996C640.361 33.0029 639.212 33.3045 637.995 33.3045ZM638.694 31.0821C639.593 31.0821 640.413 30.8492 641.154 30.3836C641.895 29.9179 642.488 29.193 642.932 28.2088C643.377 27.214 643.599 25.944 643.599 24.3989C643.599 22.0918 643.123 20.388 642.17 19.2873C641.218 18.1761 640.07 17.6205 638.726 17.6205C637.307 17.6205 636.143 18.2079 635.233 19.3826C634.323 20.5467 633.868 22.2188 633.868 24.3989C633.868 26.5155 634.307 28.1611 635.186 29.3359C636.064 30.5 637.233 31.0821 638.694 31.0821Z" fill="#272839"/>
<path d="M659.535 33.3045C657.905 33.3045 656.492 32.9394 655.296 32.2091C654.111 31.4789 653.196 30.4471 652.55 29.1136C651.905 27.7696 651.582 26.1874 651.582 24.3672C651.582 22.5363 651.905 20.9489 652.55 19.6048C653.196 18.2608 654.106 17.2236 655.281 16.4934C656.455 15.7632 657.836 15.3981 659.424 15.3981C660.334 15.3981 661.244 15.5462 662.154 15.8426C663.074 16.1283 663.911 16.631 664.662 17.3506C665.424 18.0597 666.032 19.0386 666.487 20.2874C666.953 21.5256 667.186 23.0919 667.186 24.9863H653.296V22.8273H664.868L664.106 23.8274C664.053 22.3246 663.81 21.1182 663.376 20.208C662.942 19.2979 662.376 18.6418 661.678 18.2396C660.99 17.8269 660.223 17.6205 659.376 17.6205C658.371 17.6205 657.503 17.8851 656.773 18.4142C656.042 18.9328 655.482 19.6948 655.09 20.7002C654.698 21.7055 654.503 22.9332 654.503 24.383C654.503 26.5208 654.937 28.1717 655.804 29.3359C656.683 30.5 657.926 31.0821 659.535 31.0821C660.688 31.0821 661.656 30.791 662.44 30.209C663.233 29.6269 663.815 28.7855 664.186 27.6849L666.805 28.5739C666.392 29.5687 665.842 30.4206 665.154 31.1297C664.466 31.8282 663.646 32.3679 662.694 32.7489C661.752 33.1193 660.699 33.3045 659.535 33.3045Z" fill="#272839"/>
<path d="M672.518 32.9235V15.7791H675.026V19.4143L674.931 19.0016C675.439 17.8163 676.201 16.922 677.217 16.3188C678.243 15.705 679.28 15.3981 680.328 15.3981C680.635 15.3981 680.931 15.4245 681.217 15.4775C681.513 15.5304 681.788 15.6203 682.042 15.7473L681.693 18.2555C681.111 18.0756 680.534 17.9856 679.963 17.9856C679.603 17.9856 679.153 18.0597 678.614 18.2079C678.084 18.3454 677.555 18.6312 677.026 19.0651C676.508 19.4884 676.068 20.1234 675.709 20.97C675.359 21.8167 675.185 22.9437 675.185 24.3513V32.9235H672.518Z" fill="#272839"/>
<path d="M692.867 33.3045C691.237 33.3045 689.824 32.9394 688.629 32.2091C687.443 31.4789 686.528 30.4471 685.882 29.1136C685.237 27.7696 684.914 26.1874 684.914 24.3672C684.914 22.5363 685.237 20.9489 685.882 19.6048C686.528 18.2608 687.438 17.2236 688.613 16.4934C689.787 15.7632 691.168 15.3981 692.756 15.3981C693.666 15.3981 694.576 15.5462 695.486 15.8426C696.407 16.1283 697.243 16.631 697.994 17.3506C698.756 18.0597 699.365 19.0386 699.82 20.2874C700.285 21.5256 700.518 23.0919 700.518 24.9863H686.628V22.8273H698.2L697.438 23.8274C697.386 22.3246 697.142 21.1182 696.708 20.208C696.274 19.2979 695.708 18.6418 695.01 18.2396C694.322 17.8269 693.555 17.6205 692.708 17.6205C691.703 17.6205 690.835 17.8851 690.105 18.4142C689.375 18.9328 688.814 19.6948 688.422 20.7002C688.031 21.7055 687.835 22.9332 687.835 24.383C687.835 26.5208 688.269 28.1717 689.137 29.3359C690.015 30.5 691.258 31.0821 692.867 31.0821C694.02 31.0821 694.989 30.791 695.772 30.209C696.565 29.6269 697.147 28.7855 697.518 27.6849L700.137 28.5739C699.724 29.5687 699.174 30.4206 698.486 31.1297C697.798 31.8282 696.978 32.3679 696.026 32.7489C695.084 33.1193 694.031 33.3045 692.867 33.3045Z" fill="#272839"/>
<path d="M713.279 33.3045C711.649 33.3045 710.237 32.9394 709.041 32.2091C707.856 31.4789 706.94 30.4471 706.295 29.1136C705.649 27.7696 705.326 26.1874 705.326 24.3672C705.326 22.5363 705.649 20.9489 706.295 19.6048C706.94 18.2608 707.85 17.2236 709.025 16.4934C710.2 15.7632 711.581 15.3981 713.168 15.3981C714.078 15.3981 714.988 15.5462 715.898 15.8426C716.819 16.1283 717.655 16.631 718.406 17.3506C719.168 18.0597 719.777 19.0386 720.232 20.2874C720.697 21.5256 720.93 23.0919 720.93 24.9863H707.041V22.8273H718.613L717.851 23.8274C717.798 22.3246 717.554 21.1182 717.121 20.208C716.687 19.2979 716.121 18.6418 715.422 18.2396C714.734 17.8269 713.967 17.6205 713.12 17.6205C712.115 17.6205 711.247 17.8851 710.517 18.4142C709.787 18.9328 709.226 19.6948 708.835 20.7002C708.443 21.7055 708.247 22.9332 708.247 24.383C708.247 26.5208 708.681 28.1717 709.549 29.3359C710.427 30.5 711.671 31.0821 713.279 31.0821C714.433 31.0821 715.401 30.791 716.184 30.209C716.978 29.6269 717.56 28.7855 717.93 27.6849L720.549 28.5739C720.137 29.5687 719.586 30.4206 718.898 31.1297C718.211 31.8282 717.39 32.3679 716.438 32.7489C715.496 33.1193 714.443 33.3045 713.279 33.3045Z" fill="#272839"/>
<path d="M726.263 32.9235V15.7791H728.771V19.6524L728.659 18.954C729.115 17.9697 729.834 17.1337 730.818 16.4458C731.802 15.7473 732.998 15.3981 734.406 15.3981C735.623 15.3981 736.67 15.6679 737.549 16.2077C738.427 16.7474 739.104 17.52 739.581 18.5253C740.057 19.5201 740.295 20.7213 740.295 22.1289V32.9235H737.628V22.3352C737.628 20.9277 737.337 19.79 736.755 18.9222C736.184 18.0544 735.236 17.6205 733.914 17.6205C732.485 17.6205 731.294 18.1655 730.342 19.2556C729.4 20.335 728.929 21.9013 728.929 23.9544V32.9235H726.263Z" fill="#272839"/>
<path d="M195 33C197.26 14.4019 212.964 0 232 0C251.036 0 266.74 14.4019 269 33H257.198C255.07 21.1602 244.804 12.1817 232.46 12.1817C220.117 12.1817 209.851 21.1602 207.722 33H195Z" fill="#272839"/>
<rect x="162" y="2" width="12" height="70" fill="#272839"/>
<path d="M81 72L116 1L151 72H137.222L116.157 29.2692L95.0928 72H81Z" fill="#272839"/>
<path d="M12.5 72H0V2L35 36.5L70 2V72H57.5V32L35 55L12.5 32V72Z" fill="#272839"/>
</svg>
