<svg width="269" height="72" viewBox="0 0 269 72" fill="none" xmlns="http://www.w3.org/2000/svg">
<path d="M195 33C197.26 14.4019 212.964 0 232 0C251.036 0 266.74 14.4019 269 33H257.198C255.07 21.1602 244.804 12.1817 232.46 12.1817C220.117 12.1817 209.851 21.1602 207.722 33H195Z" fill="#CEC4F7"/>
<rect x="162" y="2" width="12" height="70" fill="#171DA2"/>
<path d="M81 72L116 1L151 72H137.222L116.157 29.2692L95.0928 72H81Z" fill="#FFA592"/>
<path d="M12.5 72H0V2L35 36.5L70 2V72H57.5V32L35 55L12.5 32V72Z" fill="#2BB989"/>
</svg>
