<svg width="263" height="30" viewBox="0 0 263 30" fill="none" xmlns="http://www.w3.org/2000/svg">
<path d="M68.5649 26.205L69.0491 17.4906H71.6029L73.6363 25.1278H73.4124L75.4518 17.4906H78.0116L78.4958 26.205H76.9708L76.5713 18.6283H76.5895L74.4653 26.205H72.5954L70.4712 18.6283H70.4894L70.0839 26.205H68.5649Z" fill="#272839"/>
<path d="M81.9089 26.3563C81.4853 26.3563 81.1041 26.2797 80.7652 26.1264C80.4263 25.9731 80.158 25.7512 79.9603 25.4607C79.7626 25.1662 79.6638 24.8152 79.6638 24.4077C79.6638 23.9679 79.7908 23.5847 80.045 23.2579C80.3032 22.927 80.6825 22.6709 81.1827 22.4893C81.687 22.3078 82.3104 22.217 83.0527 22.217H84.0331L83.9242 22.3622V21.9931C83.9242 21.5251 83.8354 21.1721 83.6579 20.934C83.4804 20.696 83.1858 20.577 82.7743 20.577C82.383 20.577 82.0824 20.6798 81.8726 20.8856C81.6628 21.0914 81.5418 21.3758 81.5095 21.7389L79.9421 21.4424C79.9946 21.0833 80.1398 20.7585 80.3779 20.468C80.6199 20.1776 80.9487 19.9456 81.3643 19.7721C81.7798 19.5986 82.2801 19.5119 82.8651 19.5119C83.4219 19.5119 83.8878 19.6067 84.263 19.7963C84.6383 19.9859 84.9186 20.2804 85.1042 20.6798C85.2939 21.0752 85.3887 21.5876 85.3887 22.217V24.7284C85.3887 24.8656 85.4068 24.9564 85.4431 25.0008C85.4835 25.0451 85.5662 25.0673 85.6912 25.0673H86.018V26.205H85.2374C84.842 26.205 84.5334 26.1002 84.3115 25.8904C84.0896 25.6765 83.9786 25.384 83.9786 25.0129V24.6437L84.2328 24.7163C84.1763 24.8898 84.0936 25.0714 83.9847 25.261C83.8757 25.4506 83.7305 25.6281 83.5489 25.7935C83.3674 25.9589 83.1415 26.0941 82.8712 26.199C82.6049 26.3039 82.2841 26.3563 81.9089 26.3563ZM82.3205 25.2731C82.623 25.2731 82.8954 25.2025 83.1374 25.0613C83.3835 24.916 83.5772 24.6962 83.7184 24.4016C83.8636 24.1031 83.9363 23.7279 83.9363 23.276V23.1671H83.0769C82.6049 23.1671 82.2357 23.2296 81.9695 23.3547C81.7032 23.4757 81.5156 23.627 81.4066 23.8086C81.2977 23.9861 81.2433 24.1636 81.2433 24.3411C81.2433 24.4944 81.2775 24.6437 81.3461 24.7889C81.4187 24.9302 81.5337 25.0472 81.6911 25.1399C81.8484 25.2287 82.0582 25.2731 82.3205 25.2731Z" fill="#272839"/>
<path d="M87.3071 26.205V19.6692H88.7413V21.1095L88.6868 20.928C88.8886 20.4559 89.179 20.1029 89.5583 19.8689C89.9375 19.6349 90.341 19.5179 90.7686 19.5179C90.8897 19.5179 91.0107 19.528 91.1317 19.5482C91.2568 19.5684 91.3758 19.6026 91.4888 19.6511L91.3556 20.9643C91.1095 20.8917 90.8695 20.8553 90.6355 20.8553C90.462 20.8553 90.2684 20.8876 90.0545 20.9522C89.8447 21.0127 89.645 21.1277 89.4554 21.2971C89.2658 21.4666 89.1084 21.7107 88.9834 22.0294C88.8623 22.3441 88.8018 22.7536 88.8018 23.2579V26.205H87.3071Z" fill="#272839"/>
<path d="M92.6023 26.205V19.6692H94.0971V26.205H92.6023ZM93.3466 18.7675C93.036 18.7675 92.7818 18.6687 92.5841 18.471C92.3864 18.2733 92.2876 18.0191 92.2876 17.7085C92.2876 17.3938 92.3864 17.1396 92.5841 16.9459C92.7818 16.7483 93.036 16.6494 93.3466 16.6494C93.6613 16.6494 93.9155 16.7483 94.1092 16.9459C94.3069 17.1396 94.4057 17.3938 94.4057 17.7085C94.4057 18.0191 94.3069 18.2733 94.1092 18.471C93.9155 18.6687 93.6613 18.7675 93.3466 18.7675Z" fill="#272839"/>
<path d="M97.7039 26.3563C97.2803 26.3563 96.899 26.2797 96.5601 26.1264C96.2212 25.9731 95.9529 25.7512 95.7552 25.4607C95.5575 25.1662 95.4587 24.8152 95.4587 24.4077C95.4587 23.9679 95.5858 23.5847 95.8399 23.2579C96.0982 22.927 96.4774 22.6709 96.9777 22.4893C97.482 22.3078 98.1053 22.217 98.8476 22.217H99.828L99.7191 22.3622V21.9931C99.7191 21.5251 99.6303 21.1721 99.4528 20.934C99.2753 20.696 98.9808 20.577 98.5693 20.577C98.1779 20.577 97.8774 20.6798 97.6676 20.8856C97.4578 21.0914 97.3367 21.3758 97.3045 21.7389L95.7371 21.4424C95.7895 21.0833 95.9348 20.7585 96.1728 20.468C96.4149 20.1776 96.7437 19.9456 97.1592 19.7721C97.5748 19.5986 98.075 19.5119 98.66 19.5119C99.2168 19.5119 99.6828 19.6067 100.058 19.7963C100.433 19.9859 100.714 20.2804 100.899 20.6798C101.089 21.0752 101.184 21.5876 101.184 22.217V24.7284C101.184 24.8656 101.202 24.9564 101.238 25.0008C101.278 25.0451 101.361 25.0673 101.486 25.0673H101.813V26.205H101.032C100.637 26.205 100.328 26.1002 100.106 25.8904C99.8845 25.6765 99.7736 25.384 99.7736 25.0129V24.6437L100.028 24.7163C99.9712 24.8898 99.8885 25.0714 99.7796 25.261C99.6707 25.4506 99.5254 25.6281 99.3439 25.7935C99.1623 25.9589 98.9364 26.0941 98.6661 26.199C98.3998 26.3039 98.0791 26.3563 97.7039 26.3563ZM98.1154 25.2731C98.418 25.2731 98.6903 25.2025 98.9324 25.0613C99.1785 24.916 99.3721 24.6962 99.5133 24.4016C99.6586 24.1031 99.7312 23.7279 99.7312 23.276V23.1671H98.8718C98.3998 23.1671 98.0307 23.2296 97.7644 23.3547C97.4981 23.4757 97.3105 23.627 97.2016 23.8086C97.0926 23.9861 97.0382 24.1636 97.0382 24.3411C97.0382 24.4944 97.0725 24.6437 97.1411 24.7889C97.2137 24.9302 97.3287 25.0472 97.486 25.1399C97.6434 25.2287 97.8531 25.2731 98.1154 25.2731Z" fill="#272839"/>
<path d="M105.093 26.205L108.567 17.4906H110.443L113.904 26.205H112.222L109.499 18.7615L106.775 26.205H105.093ZM107.163 23.6391V22.3743H111.822V23.6391H107.163Z" fill="#272839"/>
<path d="M117.299 26.3563C116.815 26.3563 116.363 26.2837 115.944 26.1385C115.528 25.9892 115.179 25.7613 114.897 25.4546C114.618 25.144 114.437 24.7466 114.352 24.2625L115.774 23.9841C115.815 24.4077 115.962 24.7244 116.216 24.9342C116.474 25.144 116.817 25.2489 117.245 25.2489C117.668 25.2489 117.991 25.1561 118.213 24.9705C118.439 24.7849 118.552 24.563 118.552 24.3048C118.552 24.0789 118.467 23.8913 118.298 23.742C118.132 23.5927 117.866 23.4878 117.499 23.4273L116.827 23.3123C116.601 23.272 116.363 23.2195 116.113 23.155C115.863 23.0864 115.627 22.9896 115.405 22.8645C115.183 22.7354 115.002 22.5619 114.86 22.3441C114.723 22.1222 114.655 21.8418 114.655 21.5029C114.655 21.0712 114.77 20.7081 115 20.4136C115.23 20.1191 115.54 19.8972 115.932 19.7479C116.327 19.5946 116.771 19.5179 117.263 19.5179C117.743 19.5179 118.173 19.5905 118.552 19.7358C118.935 19.877 119.252 20.0848 119.502 20.3591C119.756 20.6334 119.922 20.9703 119.998 21.3697L118.558 21.6602C118.53 21.4666 118.471 21.2911 118.383 21.1337C118.294 20.9723 118.161 20.8453 117.983 20.7525C117.81 20.6556 117.58 20.6072 117.293 20.6072C116.958 20.6072 116.682 20.6758 116.464 20.813C116.246 20.9461 116.137 21.1378 116.137 21.3879C116.137 21.5533 116.186 21.6905 116.283 21.7994C116.383 21.9043 116.525 21.991 116.706 22.0596C116.888 22.1282 117.102 22.1867 117.348 22.2351L118.074 22.3743C118.417 22.4308 118.74 22.5296 119.042 22.6709C119.345 22.808 119.589 23.0017 119.774 23.2518C119.964 23.502 120.059 23.8308 120.059 24.2382C120.059 24.6901 119.94 25.0754 119.702 25.3941C119.464 25.7088 119.137 25.9489 118.721 26.1143C118.306 26.2757 117.832 26.3563 117.299 26.3563Z" fill="#272839"/>
<path d="M123.944 26.3563C123.46 26.3563 123.008 26.2837 122.588 26.1385C122.173 25.9892 121.824 25.7613 121.542 25.4546C121.263 25.144 121.082 24.7466 120.997 24.2625L122.419 23.9841C122.459 24.4077 122.607 24.7244 122.861 24.9342C123.119 25.144 123.462 25.2489 123.89 25.2489C124.313 25.2489 124.636 25.1561 124.858 24.9705C125.084 24.7849 125.197 24.563 125.197 24.3048C125.197 24.0789 125.112 23.8913 124.943 23.742C124.777 23.5927 124.511 23.4878 124.144 23.4273L123.472 23.3123C123.246 23.272 123.008 23.2195 122.758 23.155C122.508 23.0864 122.272 22.9896 122.05 22.8645C121.828 22.7354 121.646 22.5619 121.505 22.3441C121.368 22.1222 121.299 21.8418 121.299 21.5029C121.299 21.0712 121.414 20.7081 121.644 20.4136C121.874 20.1191 122.185 19.8972 122.576 19.7479C122.972 19.5946 123.416 19.5179 123.908 19.5179C124.388 19.5179 124.818 19.5905 125.197 19.7358C125.58 19.877 125.897 20.0848 126.147 20.3591C126.401 20.6334 126.566 20.9703 126.643 21.3697L125.203 21.6602C125.175 21.4666 125.116 21.2911 125.027 21.1337C124.939 20.9723 124.805 20.8453 124.628 20.7525C124.454 20.6556 124.224 20.6072 123.938 20.6072C123.603 20.6072 123.327 20.6758 123.109 20.813C122.891 20.9461 122.782 21.1378 122.782 21.3879C122.782 21.5533 122.831 21.6905 122.927 21.7994C123.028 21.9043 123.169 21.991 123.351 22.0596C123.533 22.1282 123.746 22.1867 123.992 22.2351L124.719 22.3743C125.062 22.4308 125.384 22.5296 125.687 22.6709C125.99 22.808 126.234 23.0017 126.419 23.2518C126.609 23.502 126.704 23.8308 126.704 24.2382C126.704 24.6901 126.585 25.0754 126.347 25.3941C126.109 25.7088 125.782 25.9489 125.366 26.1143C124.951 26.2757 124.477 26.3563 123.944 26.3563Z" fill="#272839"/>
<path d="M130.195 26.3563C129.711 26.3563 129.304 26.2474 128.973 26.0295C128.646 25.8077 128.4 25.497 128.235 25.0976C128.069 24.6982 127.987 24.2342 127.987 23.7057V19.6692H129.481V23.5423C129.481 24.0708 129.576 24.4783 129.766 24.7647C129.955 25.0512 130.27 25.1944 130.71 25.1944C131 25.1944 131.263 25.1198 131.497 24.9705C131.731 24.8172 131.918 24.5771 132.059 24.2503C132.201 23.9236 132.271 23.4959 132.271 22.9674V19.6692H133.772V26.205H132.332V24.6679L132.374 24.9402C132.188 25.3679 131.91 25.7108 131.539 25.969C131.172 26.2272 130.724 26.3563 130.195 26.3563Z" fill="#272839"/>
<path d="M135.551 26.205V19.6692H136.985V20.7464C137.163 20.3833 137.423 20.0888 137.766 19.8629C138.113 19.6329 138.519 19.5179 138.983 19.5179C139.43 19.5179 139.812 19.6329 140.126 19.8629C140.445 20.0888 140.681 20.4176 140.834 20.8493C141.064 20.4176 141.361 20.0888 141.724 19.8629C142.087 19.6329 142.49 19.5179 142.934 19.5179C143.58 19.5179 144.08 19.7479 144.435 20.2078C144.794 20.6677 144.974 21.3213 144.974 22.1686V26.205H143.479V22.1867C143.479 21.8922 143.449 21.632 143.388 21.406C143.328 21.1801 143.225 21.0026 143.08 20.8735C142.934 20.7444 142.731 20.6798 142.468 20.6798C142.17 20.6798 141.912 20.7726 141.694 20.9582C141.476 21.1398 141.306 21.398 141.185 21.7328C141.068 22.0637 141.01 22.455 141.01 22.9069V26.205H139.515V22.1867C139.515 21.8922 139.485 21.632 139.424 21.406C139.364 21.1801 139.261 21.0026 139.116 20.8735C138.97 20.7444 138.771 20.6798 138.517 20.6798C138.218 20.6798 137.958 20.7706 137.736 20.9522C137.518 21.1337 137.349 21.3919 137.228 21.7268C137.106 22.0576 137.046 22.453 137.046 22.9129V26.205H135.551Z" fill="#272839"/>
<path d="M146.674 28.5652V19.6692H148.09V21.0006L148.066 20.9038C148.272 20.4277 148.57 20.0787 148.962 19.8568C149.353 19.6309 149.781 19.5179 150.245 19.5179C150.789 19.5179 151.261 19.6551 151.661 19.9294C152.064 20.2038 152.377 20.5971 152.599 21.1095C152.821 21.6219 152.932 22.2351 152.932 22.9492C152.932 23.6553 152.819 24.2645 152.593 24.7768C152.371 25.2852 152.058 25.6765 151.655 25.9509C151.251 26.2212 150.775 26.3563 150.227 26.3563C149.767 26.3563 149.339 26.2474 148.944 26.0295C148.552 25.8077 148.244 25.4445 148.018 24.9402L148.157 24.91V28.5652H146.674ZM149.724 25.1944C150.204 25.1944 150.592 24.9947 150.886 24.5953C151.181 24.1959 151.328 23.6351 151.328 22.9129C151.328 22.2069 151.185 21.6582 150.898 21.2669C150.612 20.8755 150.225 20.6798 149.736 20.6798C149.438 20.6798 149.163 20.7605 148.913 20.9219C148.667 21.0793 148.472 21.3254 148.326 21.6602C148.181 21.991 148.108 22.4126 148.108 22.925C148.108 23.6835 148.264 24.2524 148.574 24.6316C148.889 25.0068 149.272 25.1944 149.724 25.1944Z" fill="#272839"/>
<path d="M155.951 26.205C155.556 26.205 155.241 26.1002 155.007 25.8904C154.773 25.6765 154.656 25.384 154.656 25.0129V20.8069H153.676V19.6692H154.656V18.356L156.151 18.005V19.6692H157.398V20.8069H156.151V24.7284C156.151 24.8656 156.169 24.9564 156.206 25.0008C156.246 25.0451 156.329 25.0673 156.454 25.0673H157.452V26.205H155.951Z" fill="#272839"/>
<path d="M160.533 26.3563C160.109 26.3563 159.728 26.2797 159.389 26.1264C159.05 25.9731 158.782 25.7512 158.584 25.4607C158.386 25.1662 158.287 24.8152 158.287 24.4077C158.287 23.9679 158.415 23.5847 158.669 23.2579C158.927 22.927 159.306 22.6709 159.806 22.4893C160.311 22.3078 160.934 22.217 161.676 22.217H162.657L162.548 22.3622V21.9931C162.548 21.5251 162.459 21.1721 162.282 20.934C162.104 20.696 161.81 20.577 161.398 20.577C161.007 20.577 160.706 20.6798 160.496 20.8856C160.287 21.0914 160.165 21.3758 160.133 21.7389L158.566 21.4424C158.618 21.0833 158.763 20.7585 159.002 20.468C159.244 20.1776 159.572 19.9456 159.988 19.7721C160.404 19.5986 160.904 19.5119 161.489 19.5119C162.046 19.5119 162.512 19.6067 162.887 19.7963C163.262 19.9859 163.542 20.2804 163.728 20.6798C163.918 21.0752 164.012 21.5876 164.012 22.217V24.7284C164.012 24.8656 164.03 24.9564 164.067 25.0008C164.107 25.0451 164.19 25.0673 164.315 25.0673H164.642V26.205H163.861C163.466 26.205 163.157 26.1002 162.935 25.8904C162.713 25.6765 162.602 25.384 162.602 25.0129V24.6437L162.856 24.7163C162.8 24.8898 162.717 25.0714 162.608 25.261C162.499 25.4506 162.354 25.6281 162.173 25.7935C161.991 25.9589 161.765 26.0941 161.495 26.199C161.229 26.3039 160.908 26.3563 160.533 26.3563ZM160.944 25.2731C161.247 25.2731 161.519 25.2025 161.761 25.0613C162.007 24.916 162.201 24.6962 162.342 24.4016C162.487 24.1031 162.56 23.7279 162.56 23.276V23.1671H161.701C161.229 23.1671 160.859 23.2296 160.593 23.3547C160.327 23.4757 160.139 23.627 160.03 23.8086C159.921 23.9861 159.867 24.1636 159.867 24.3411C159.867 24.4944 159.901 24.6437 159.97 24.7889C160.042 24.9302 160.157 25.0472 160.315 25.1399C160.472 25.2287 160.682 25.2731 160.944 25.2731Z" fill="#272839"/>
<path d="M168.339 26.205V24.9281H169.525V18.7675H168.339V17.4906H172.279V18.7675H171.093V24.9281H172.279V26.205H168.339Z" fill="#272839"/>
<path d="M173.628 26.205V19.6692H175.063V21.164L175.02 20.8977C175.21 20.4862 175.488 20.1533 175.856 19.8992C176.223 19.645 176.668 19.5179 177.193 19.5179C177.681 19.5179 178.089 19.6289 178.415 19.8508C178.746 20.0686 178.994 20.3773 179.16 20.7767C179.329 21.1721 179.414 21.636 179.414 22.1686V26.205H177.913V22.2714C177.913 21.7792 177.822 21.3919 177.641 21.1095C177.463 20.8231 177.163 20.6798 176.739 20.6798C176.251 20.6798 175.86 20.8775 175.565 21.2729C175.271 21.6683 175.123 22.2593 175.123 23.0461V26.205H173.628Z" fill="#272839"/>
<path d="M183.529 26.3563C183.045 26.3563 182.593 26.2837 182.173 26.1385C181.758 25.9892 181.409 25.7613 181.127 25.4546C180.848 25.144 180.667 24.7466 180.582 24.2625L182.004 23.9841C182.044 24.4077 182.192 24.7244 182.446 24.9342C182.704 25.144 183.047 25.2489 183.475 25.2489C183.898 25.2489 184.221 25.1561 184.443 24.9705C184.669 24.7849 184.782 24.563 184.782 24.3048C184.782 24.0789 184.697 23.8913 184.528 23.742C184.362 23.5927 184.096 23.4878 183.729 23.4273L183.057 23.3123C182.831 23.272 182.593 23.2195 182.343 23.155C182.093 23.0864 181.857 22.9896 181.635 22.8645C181.413 22.7354 181.231 22.5619 181.09 22.3441C180.953 22.1222 180.884 21.8418 180.884 21.5029C180.884 21.0712 180.999 20.7081 181.229 20.4136C181.459 20.1191 181.77 19.8972 182.161 19.7479C182.557 19.5946 183.001 19.5179 183.493 19.5179C183.973 19.5179 184.403 19.5905 184.782 19.7358C185.165 19.877 185.482 20.0848 185.732 20.3591C185.986 20.6334 186.151 20.9703 186.228 21.3697L184.788 21.6602C184.76 21.4666 184.701 21.2911 184.612 21.1337C184.524 20.9723 184.39 20.8453 184.213 20.7525C184.039 20.6556 183.809 20.6072 183.523 20.6072C183.188 20.6072 182.912 20.6758 182.694 20.813C182.476 20.9461 182.367 21.1378 182.367 21.3879C182.367 21.5533 182.416 21.6905 182.512 21.7994C182.613 21.9043 182.754 21.991 182.936 22.0596C183.118 22.1282 183.331 22.1867 183.577 22.2351L184.304 22.3743C184.647 22.4308 184.969 22.5296 185.272 22.6709C185.575 22.808 185.819 23.0017 186.004 23.2518C186.194 23.502 186.289 23.8308 186.289 24.2382C186.289 24.6901 186.17 25.0754 185.932 25.3941C185.694 25.7088 185.367 25.9489 184.951 26.1143C184.536 26.2757 184.062 26.3563 183.529 26.3563Z" fill="#272839"/>
<path d="M189.308 26.205C188.913 26.205 188.598 26.1002 188.364 25.8904C188.13 25.6765 188.013 25.384 188.013 25.0129V20.8069H187.033V19.6692H188.013V18.356L189.508 18.005V19.6692H190.755V20.8069H189.508V24.7284C189.508 24.8656 189.526 24.9564 189.563 25.0008C189.603 25.0451 189.686 25.0673 189.811 25.0673H190.809V26.205H189.308Z" fill="#272839"/>
<path d="M192.165 26.205V19.6692H193.66V26.205H192.165ZM192.909 18.7675C192.599 18.7675 192.344 18.6687 192.147 18.471C191.949 18.2733 191.85 18.0191 191.85 17.7085C191.85 17.3938 191.949 17.1396 192.147 16.9459C192.344 16.7483 192.599 16.6494 192.909 16.6494C193.224 16.6494 193.478 16.7483 193.672 16.9459C193.869 17.1396 193.968 17.3938 193.968 17.7085C193.968 18.0191 193.869 18.2733 193.672 18.471C193.478 18.6687 193.224 18.7675 192.909 18.7675Z" fill="#272839"/>
<path d="M197.2 26.205C196.804 26.205 196.49 26.1002 196.256 25.8904C196.022 25.6765 195.905 25.384 195.905 25.0129V20.8069H194.924V19.6692H195.905V18.356L197.4 18.005V19.6692H198.646V20.8069H197.4V24.7284C197.4 24.8656 197.418 24.9564 197.454 25.0008C197.494 25.0451 197.577 25.0673 197.702 25.0673H198.701V26.205H197.2Z" fill="#272839"/>
<path d="M202.102 26.3563C201.618 26.3563 201.21 26.2474 200.879 26.0295C200.552 25.8077 200.306 25.497 200.141 25.0976C199.976 24.6982 199.893 24.2342 199.893 23.7057V19.6692H201.388V23.5423C201.388 24.0708 201.482 24.4783 201.672 24.7647C201.862 25.0512 202.176 25.1944 202.616 25.1944C202.907 25.1944 203.169 25.1198 203.403 24.9705C203.637 24.8172 203.824 24.5771 203.966 24.2503C204.107 23.9236 204.177 23.4959 204.177 22.9674V19.6692H205.678V26.205H204.238V24.6679L204.28 24.9402C204.095 25.3679 203.816 25.7108 203.445 25.969C203.078 26.2272 202.63 26.3563 202.102 26.3563Z" fill="#272839"/>
<path d="M209.582 26.3563C209.097 26.3563 208.69 26.2474 208.359 26.0295C208.032 25.8077 207.786 25.497 207.621 25.0976C207.455 24.6982 207.373 24.2342 207.373 23.7057V19.6692H208.868V23.5423C208.868 24.0708 208.962 24.4783 209.152 24.7647C209.342 25.0512 209.656 25.1944 210.096 25.1944C210.387 25.1944 210.649 25.1198 210.883 24.9705C211.117 24.8172 211.304 24.5771 211.446 24.2503C211.587 23.9236 211.657 23.4959 211.657 22.9674V19.6692H213.158V26.205H211.718V24.6679L211.76 24.9402C211.575 25.3679 211.296 25.7108 210.925 25.969C210.558 26.2272 210.11 26.3563 209.582 26.3563Z" fill="#272839"/>
<path d="M216.686 26.205C216.291 26.205 215.976 26.1002 215.742 25.8904C215.508 25.6765 215.391 25.384 215.391 25.0129V20.8069H214.411V19.6692H215.391V18.356L216.886 18.005V19.6692H218.133V20.8069H216.886V24.7284C216.886 24.8656 216.904 24.9564 216.94 25.0008C216.981 25.0451 217.064 25.0673 217.189 25.0673H218.187V26.205H216.686Z" fill="#272839"/>
<path d="M226.212 26.3563C225.328 26.3563 224.564 26.1748 223.918 25.8117C223.277 25.4445 222.782 24.9241 222.435 24.2503C222.088 23.5766 221.915 22.7758 221.915 21.8478C221.915 20.9199 222.088 20.1191 222.435 19.4453C222.782 18.7715 223.277 18.2531 223.918 17.89C224.564 17.5229 225.328 17.3393 226.212 17.3393C227.095 17.3393 227.858 17.5229 228.499 17.89C229.145 18.2531 229.641 18.7715 229.988 19.4453C230.335 20.1191 230.508 20.9199 230.508 21.8478C230.508 22.7758 230.335 23.5766 229.988 24.2503C229.641 24.9241 229.145 25.4445 228.499 25.8117C227.858 26.1748 227.095 26.3563 226.212 26.3563ZM226.212 25.0431C226.76 25.0431 227.23 24.916 227.622 24.6619C228.017 24.4037 228.32 24.0365 228.529 23.5605C228.739 23.0804 228.844 22.5095 228.844 21.8478C228.844 21.1821 228.739 20.6113 228.529 20.1352C228.32 19.6591 228.017 19.294 227.622 19.0398C227.23 18.7816 226.76 18.6525 226.212 18.6525C225.667 18.6525 225.197 18.7816 224.802 19.0398C224.41 19.294 224.108 19.6591 223.894 20.1352C223.684 20.6113 223.579 21.1821 223.579 21.8478C223.579 22.5095 223.684 23.0804 223.894 23.5605C224.108 24.0365 224.41 24.4037 224.802 24.6619C225.197 24.916 225.667 25.0431 226.212 25.0431Z" fill="#272839"/>
<path d="M231.882 28.5652V19.6692H233.298V21.0006L233.274 20.9038C233.48 20.4277 233.778 20.0787 234.17 19.8568C234.561 19.6309 234.989 19.5179 235.453 19.5179C235.997 19.5179 236.469 19.6551 236.869 19.9294C237.272 20.2038 237.585 20.5971 237.807 21.1095C238.029 21.6219 238.14 22.2351 238.14 22.9492C238.14 23.6553 238.027 24.2645 237.801 24.7768C237.579 25.2852 237.266 25.6765 236.863 25.9509C236.459 26.2212 235.983 26.3563 235.434 26.3563C234.975 26.3563 234.547 26.2474 234.152 26.0295C233.76 25.8077 233.452 25.4445 233.226 24.9402L233.365 24.91V28.5652H231.882ZM234.932 25.1944C235.412 25.1944 235.8 24.9947 236.094 24.5953C236.389 24.1959 236.536 23.6351 236.536 22.9129C236.536 22.2069 236.393 21.6582 236.106 21.2669C235.82 20.8755 235.432 20.6798 234.944 20.6798C234.646 20.6798 234.371 20.7605 234.121 20.9219C233.875 21.0793 233.679 21.3254 233.534 21.6602C233.389 21.991 233.316 22.4126 233.316 22.925C233.316 23.6835 233.472 24.2524 233.782 24.6316C234.097 25.0068 234.48 25.1944 234.932 25.1944Z" fill="#272839"/>
<path d="M240.566 26.205L238.89 19.6692H240.451L241.704 25.3518H241.535L242.908 19.6692H244.887L246.267 25.382H246.067L247.338 19.6692H248.845L247.163 26.205H245.075L243.737 20.3591H244.004L242.654 26.205H240.566Z" fill="#272839"/>
<path d="M250.067 26.205V19.6692H251.562V26.205H250.067ZM250.812 18.7675C250.501 18.7675 250.247 18.6687 250.049 18.471C249.852 18.2733 249.753 18.0191 249.753 17.7085C249.753 17.3938 249.852 17.1396 250.049 16.9459C250.247 16.7483 250.501 16.6494 250.812 16.6494C251.127 16.6494 251.381 16.7483 251.574 16.9459C251.772 17.1396 251.871 17.3938 251.871 17.7085C251.871 18.0191 251.772 18.2733 251.574 18.471C251.381 18.6687 251.127 18.7675 250.812 18.7675Z" fill="#272839"/>
<path d="M252.615 28.5652V27.4275H253.269C253.398 27.4275 253.481 27.4053 253.517 27.3609C253.553 27.3165 253.571 27.2258 253.571 27.0886V19.6692H255.072V27.373C255.072 27.7442 254.955 28.0347 254.721 28.2445C254.487 28.4583 254.171 28.5652 253.771 28.5652H252.615ZM254.328 18.7675C254.017 18.7675 253.763 18.6687 253.565 18.471C253.368 18.2733 253.269 18.0191 253.269 17.7085C253.269 17.3938 253.368 17.1396 253.565 16.9459C253.763 16.7483 254.017 16.6494 254.328 16.6494C254.643 16.6494 254.897 16.7483 255.09 16.9459C255.288 17.1396 255.387 17.3938 255.387 17.7085C255.387 18.0191 255.288 18.2733 255.09 18.471C254.897 18.6687 254.643 18.7675 254.328 18.7675Z" fill="#272839"/>
<path d="M256.894 26.205V17.1275H258.389V22.3441L261.124 19.6692H262.921L260.374 22.1323L263 26.205H261.299L259.345 23.155L258.389 24.0748V26.205H256.894Z" fill="#272839"/>
<path d="M101.593 12.3734L102.042 4.27869H103.706L105.999 11.6426H105.775L108.079 4.27869H109.743L110.193 12.3734H109.215L108.821 5.04319H108.838L106.46 12.3734H105.336L102.947 5.04319H102.964L102.571 12.3734H101.593Z" fill="#272839"/>
<path d="M114.729 12.5083C114.151 12.5083 113.651 12.379 113.228 12.1204C112.808 11.8619 112.484 11.4965 112.255 11.0243C112.027 10.5483 111.912 9.98808 111.912 9.3435C111.912 8.69517 112.027 8.13304 112.255 7.6571C112.484 7.18117 112.806 6.81391 113.222 6.55533C113.638 6.29675 114.127 6.16745 114.689 6.16745C115.011 6.16745 115.334 6.21992 115.656 6.32485C115.982 6.42603 116.278 6.60404 116.544 6.85888C116.814 7.10996 117.029 7.45661 117.191 7.89882C117.355 8.33728 117.438 8.89192 117.438 9.56273H112.519V8.79823H116.617L116.347 9.15238C116.329 8.62022 116.242 8.193 116.089 7.87071C115.935 7.54843 115.735 7.31608 115.487 7.17367C115.244 7.02752 114.972 6.95444 114.672 6.95444C114.316 6.95444 114.009 7.04813 113.75 7.23551C113.492 7.41913 113.293 7.68896 113.155 8.04498C113.016 8.40099 112.947 8.83571 112.947 9.34912C112.947 10.1061 113.1 10.6907 113.408 11.103C113.719 11.5152 114.159 11.7213 114.729 11.7213C115.137 11.7213 115.48 11.6183 115.757 11.4121C116.038 11.206 116.244 10.9081 116.375 10.5184L117.303 10.8331C117.157 11.1854 116.962 11.4871 116.718 11.7382C116.475 11.9855 116.184 12.1766 115.847 12.3116C115.514 12.4427 115.141 12.5083 114.729 12.5083Z" fill="#272839"/>
<path d="M120.433 12.3734C120.194 12.3734 119.984 12.2947 119.804 12.1373C119.624 11.9762 119.534 11.7738 119.534 11.5302V7.08935H118.556V6.30237H119.534V5.03195L120.478 4.82958V6.30237H121.681V7.08935H120.478V11.2772C120.478 11.4009 120.495 11.4833 120.529 11.5246C120.566 11.5658 120.643 11.5864 120.759 11.5864H121.687V12.3734H120.433Z" fill="#272839"/>
<path d="M128.448 12.5083C128.043 12.5083 127.691 12.4315 127.391 12.2778C127.095 12.1204 126.867 11.9068 126.706 11.637C126.544 11.3672 126.464 11.0617 126.464 10.7207C126.464 10.3572 126.571 10.0218 126.784 9.71451C126.998 9.40721 127.328 9.16174 127.774 8.97811C128.223 8.79074 128.799 8.69705 129.499 8.69705H130.511L130.41 8.79823V8.46657C130.41 7.97939 130.312 7.60651 130.118 7.34793C129.923 7.0856 129.597 6.95444 129.14 6.95444C128.709 6.95444 128.377 7.06687 128.145 7.29172C127.912 7.51282 127.789 7.81075 127.774 8.18551L126.711 7.94379C126.745 7.61775 126.869 7.3217 127.082 7.05562C127.3 6.7858 127.588 6.57032 127.948 6.40917C128.311 6.24803 128.731 6.16745 129.207 6.16745C129.698 6.16745 130.097 6.26114 130.404 6.44852C130.715 6.63215 130.944 6.89823 131.09 7.24675C131.236 7.59527 131.309 8.015 131.309 8.50592V11.2772C131.309 11.4009 131.326 11.4833 131.36 11.5246C131.397 11.5658 131.474 11.5864 131.59 11.5864H131.933V12.3734H131.332C131.077 12.3734 130.863 12.2947 130.691 12.1373C130.519 11.9762 130.432 11.7738 130.432 11.5302V11.103H130.573C130.513 11.2604 130.427 11.4215 130.314 11.5864C130.202 11.7476 130.06 11.8993 129.887 12.0417C129.715 12.1804 129.509 12.2928 129.269 12.379C129.033 12.4652 128.759 12.5083 128.448 12.5083ZM128.662 11.7213C128.973 11.7213 129.261 11.6445 129.527 11.4908C129.793 11.3372 130.007 11.0974 130.168 10.7713C130.333 10.4415 130.416 10.0143 130.416 9.48965V9.43906H129.466C128.967 9.43906 128.574 9.50464 128.285 9.63581C128 9.76697 127.798 9.92999 127.678 10.1249C127.558 10.316 127.498 10.5071 127.498 10.6982C127.498 10.8894 127.541 11.0618 127.627 11.2154C127.714 11.369 127.843 11.4927 128.015 11.5864C128.188 11.6763 128.403 11.7213 128.662 11.7213Z" fill="#272839"/>
<path d="M135.26 12.5083C134.856 12.5083 134.503 12.4315 134.204 12.2778C133.908 12.1204 133.679 11.9068 133.518 11.637C133.357 11.3672 133.276 11.0617 133.276 10.7207C133.276 10.3572 133.383 10.0218 133.597 9.71451C133.81 9.40721 134.14 9.16174 134.586 8.97811C135.036 8.79074 135.611 8.69705 136.312 8.69705H137.323L137.222 8.79823V8.46657C137.222 7.97939 137.125 7.60651 136.93 7.34793C136.735 7.0856 136.409 6.95444 135.952 6.95444C135.521 6.95444 135.189 7.06687 134.957 7.29172C134.725 7.51282 134.601 7.81075 134.586 8.18551L133.523 7.94379C133.557 7.61775 133.681 7.3217 133.894 7.05562C134.112 6.7858 134.4 6.57032 134.76 6.40917C135.124 6.24803 135.543 6.16745 136.019 6.16745C136.51 6.16745 136.909 6.26114 137.217 6.44852C137.528 6.63215 137.756 6.89823 137.902 7.24675C138.048 7.59527 138.122 8.015 138.122 8.50592V11.2772C138.122 11.4009 138.138 11.4833 138.172 11.5246C138.21 11.5658 138.286 11.5864 138.403 11.5864H138.745V12.3734H138.144C137.889 12.3734 137.676 12.2947 137.503 12.1373C137.331 11.9762 137.245 11.7738 137.245 11.5302V11.103H137.385C137.325 11.2604 137.239 11.4215 137.127 11.5864C137.014 11.7476 136.872 11.8993 136.699 12.0417C136.527 12.1804 136.321 12.2928 136.081 12.379C135.845 12.4652 135.571 12.5083 135.26 12.5083ZM135.474 11.7213C135.785 11.7213 136.074 11.6445 136.34 11.4908C136.606 11.3372 136.819 11.0974 136.98 10.7713C137.145 10.4415 137.228 10.0143 137.228 9.48965V9.43906H136.278C135.779 9.43906 135.386 9.50464 135.097 9.63581C134.813 9.76697 134.61 9.92999 134.49 10.1249C134.37 10.316 134.31 10.5071 134.31 10.6982C134.31 10.8894 134.354 11.0618 134.44 11.2154C134.526 11.369 134.655 11.4927 134.828 11.5864C135 11.6763 135.215 11.7213 135.474 11.7213Z" fill="#272839"/>
<path d="M140.516 12.3734V6.30237H141.404V7.67397L141.364 7.42663C141.526 7.07811 141.78 6.78205 142.129 6.53846C142.477 6.29112 142.901 6.16745 143.399 6.16745C143.83 6.16745 144.201 6.26302 144.512 6.45414C144.823 6.64527 145.063 6.91884 145.232 7.27485C145.4 7.62712 145.485 8.05247 145.485 8.55089V12.3734H144.54V8.62397C144.54 8.12555 144.437 7.72269 144.231 7.41539C144.029 7.10809 143.693 6.95444 143.225 6.95444C142.719 6.95444 142.297 7.14744 141.96 7.53343C141.627 7.91568 141.46 8.47032 141.46 9.19735V12.3734H140.516Z" fill="#272839"/>
<path d="M149.84 12.5083C149.35 12.5083 148.915 12.379 148.536 12.1204C148.162 11.8619 147.869 11.4946 147.66 11.0187C147.45 10.5427 147.345 9.98058 147.345 9.33226C147.345 8.68393 147.45 8.12367 147.66 7.65148C147.873 7.17554 148.167 6.81016 148.542 6.55533C148.917 6.29675 149.35 6.16745 149.84 6.16745C150.238 6.16745 150.631 6.26676 151.021 6.46538C151.411 6.664 151.705 6.99941 151.903 7.4716L151.797 7.51657V3.94141H152.741V12.3734H151.853V11.1086L151.881 11.1985C151.716 11.6407 151.442 11.9705 151.06 12.1879C150.678 12.4015 150.271 12.5083 149.84 12.5083ZM150.088 11.7213C150.406 11.7213 150.697 11.6389 150.959 11.474C151.221 11.3091 151.431 11.0524 151.589 10.7039C151.746 10.3516 151.825 9.90188 151.825 9.35474C151.825 8.53778 151.656 7.93442 151.319 7.54468C150.982 7.15119 150.575 6.95444 150.099 6.95444C149.597 6.95444 149.185 7.16243 148.862 7.57841C148.54 7.99064 148.379 8.58275 148.379 9.35474C148.379 10.1043 148.535 10.687 148.846 11.103C149.157 11.5152 149.571 11.7213 150.088 11.7213Z" fill="#272839"/>
<path d="M156.597 12.5083C156.192 12.5083 155.84 12.4315 155.54 12.2778C155.244 12.1204 155.015 11.9068 154.854 11.637C154.693 11.3672 154.612 11.0617 154.612 10.7207C154.612 10.3572 154.719 10.0218 154.933 9.71451C155.146 9.40721 155.476 9.16174 155.922 8.97811C156.372 8.79074 156.947 8.69705 157.648 8.69705H158.659L158.558 8.79823V8.46657C158.558 7.97939 158.461 7.60651 158.266 7.34793C158.071 7.0856 157.745 6.95444 157.288 6.95444C156.857 6.95444 156.525 7.06687 156.293 7.29172C156.061 7.51282 155.937 7.81075 155.922 8.18551L154.86 7.94379C154.893 7.61775 155.017 7.3217 155.231 7.05562C155.448 6.7858 155.737 6.57032 156.096 6.40917C156.46 6.24803 156.879 6.16745 157.355 6.16745C157.846 6.16745 158.245 6.26114 158.553 6.44852C158.864 6.63215 159.092 6.89823 159.238 7.24675C159.385 7.59527 159.458 8.015 159.458 8.50592V11.2772C159.458 11.4009 159.474 11.4833 159.508 11.5246C159.546 11.5658 159.623 11.5864 159.739 11.5864H160.082V12.3734H159.48C159.225 12.3734 159.012 12.2947 158.839 12.1373C158.667 11.9762 158.581 11.7738 158.581 11.5302V11.103H158.721C158.661 11.2604 158.575 11.4215 158.463 11.5864C158.35 11.7476 158.208 11.8993 158.036 12.0417C157.863 12.1804 157.657 12.2928 157.417 12.379C157.181 12.4652 156.908 12.5083 156.597 12.5083ZM156.81 11.7213C157.121 11.7213 157.41 11.6445 157.676 11.4908C157.942 11.3372 158.155 11.0974 158.317 10.7713C158.481 10.4415 158.564 10.0143 158.564 9.48965V9.43906H157.614C157.116 9.43906 156.722 9.50464 156.434 9.63581C156.149 9.76697 155.946 9.92999 155.826 10.1249C155.707 10.316 155.647 10.5071 155.647 10.6982C155.647 10.8894 155.69 11.0618 155.776 11.2154C155.862 11.369 155.991 11.4927 156.164 11.5864C156.336 11.6763 156.552 11.7213 156.81 11.7213Z" fill="#272839"/>
<path d="M164.274 12.5083C163.705 12.5083 163.212 12.379 162.796 12.1204C162.38 11.8619 162.06 11.4965 161.835 11.0243C161.61 10.5483 161.498 9.9862 161.498 9.33788C161.498 8.68955 161.61 8.12929 161.835 7.6571C162.06 7.18117 162.38 6.81391 162.796 6.55533C163.212 6.29675 163.705 6.16745 164.274 6.16745C164.709 6.16745 165.097 6.24803 165.438 6.40917C165.783 6.56657 166.073 6.79517 166.309 7.09497C166.549 7.39103 166.725 7.74892 166.838 8.16864L165.876 8.4216C165.771 7.94941 165.582 7.58777 165.309 7.33669C165.039 7.08186 164.694 6.95444 164.274 6.95444C163.716 6.95444 163.285 7.16243 162.982 7.57841C162.682 7.99064 162.532 8.57713 162.532 9.33788C162.532 10.1024 162.682 10.6907 162.982 11.103C163.285 11.5152 163.716 11.7213 164.274 11.7213C164.69 11.7213 165.033 11.5995 165.303 11.3559C165.573 11.1086 165.762 10.7526 165.871 10.2879L166.826 10.5577C166.736 10.865 166.613 11.1386 166.455 11.3784C166.298 11.6183 166.111 11.8225 165.893 11.9911C165.68 12.1598 165.436 12.2872 165.163 12.3734C164.893 12.4633 164.597 12.5083 164.274 12.5083Z" fill="#272839"/>
<path d="M168.67 12.3734V3.94141H169.614V7.73018L169.518 7.48284C169.676 7.10434 169.929 6.79142 170.277 6.54408C170.629 6.293 171.059 6.16745 171.564 6.16745C171.992 6.16745 172.359 6.26302 172.666 6.45414C172.977 6.64527 173.217 6.91884 173.386 7.27485C173.554 7.62712 173.639 8.05247 173.639 8.55089V12.3734H172.694V8.62397C172.694 8.11056 172.597 7.70395 172.402 7.40414C172.211 7.10434 171.87 6.95444 171.379 6.95444C170.854 6.95444 170.429 7.14182 170.103 7.51657C169.777 7.88758 169.614 8.44784 169.614 9.19735V12.3734H168.67Z" fill="#272839"/>
<path d="M176.955 12.3734C176.715 12.3734 176.505 12.2947 176.325 12.1373C176.145 11.9762 176.055 11.7738 176.055 11.5302V7.08935H175.077V6.30237H176.055V5.03195L177 4.82958V6.30237H178.202V7.08935H177V11.2772C177 11.4009 177.016 11.4833 177.05 11.5246C177.088 11.5658 177.164 11.5864 177.281 11.5864H178.208V12.3734H176.955Z" fill="#272839"/>
<path d="M185.087 12.3734L182.805 6.30237H183.851L185.779 11.8394H185.599L187.516 6.30237H188.561L186.29 12.3734H185.087Z" fill="#272839"/>
<path d="M192.552 12.5083C191.982 12.5083 191.48 12.3753 191.045 12.1092C190.611 11.8394 190.271 11.4665 190.028 10.9905C189.784 10.5146 189.662 9.96372 189.662 9.33788C189.662 8.71204 189.784 8.16115 190.028 7.68521C190.271 7.20927 190.611 6.83827 191.045 6.57219C191.48 6.30237 191.982 6.16745 192.552 6.16745C193.121 6.16745 193.623 6.30237 194.058 6.57219C194.493 6.83827 194.832 7.20927 195.075 7.68521C195.319 8.16115 195.441 8.71204 195.441 9.33788C195.441 9.96372 195.319 10.5146 195.075 10.9905C194.832 11.4665 194.493 11.8394 194.058 12.1092C193.623 12.3753 193.121 12.5083 192.552 12.5083ZM192.552 11.7213C193.125 11.7213 193.577 11.5077 193.906 11.0805C194.24 10.6533 194.407 10.0724 194.407 9.33788C194.407 8.59961 194.24 8.01874 193.906 7.59527C193.577 7.16805 193.125 6.95444 192.552 6.95444C191.978 6.95444 191.525 7.16805 191.191 7.59527C190.862 8.01874 190.697 8.59961 190.697 9.33788C190.697 10.0724 190.862 10.6533 191.191 11.0805C191.525 11.5077 191.978 11.7213 192.552 11.7213Z" fill="#272839"/>
<path d="M200.117 12.5083C199.548 12.5083 199.045 12.3753 198.611 12.1092C198.176 11.8394 197.837 11.4665 197.593 10.9905C197.35 10.5146 197.228 9.96372 197.228 9.33788C197.228 8.71204 197.35 8.16115 197.593 7.68521C197.837 7.20927 198.176 6.83827 198.611 6.57219C199.045 6.30237 199.548 6.16745 200.117 6.16745C200.687 6.16745 201.189 6.30237 201.624 6.57219C202.058 6.83827 202.397 7.20927 202.641 7.68521C202.885 8.16115 203.006 8.71204 203.006 9.33788C203.006 9.96372 202.885 10.5146 202.641 10.9905C202.397 11.4665 202.058 11.8394 201.624 12.1092C201.189 12.3753 200.687 12.5083 200.117 12.5083ZM200.117 11.7213C200.69 11.7213 201.142 11.5077 201.472 11.0805C201.805 10.6533 201.972 10.0724 201.972 9.33788C201.972 8.59961 201.805 8.01874 201.472 7.59527C201.142 7.16805 200.69 6.95444 200.117 6.95444C199.544 6.95444 199.09 7.16805 198.757 7.59527C198.427 8.01874 198.262 8.59961 198.262 9.33788C198.262 10.0724 198.427 10.6533 198.757 11.0805C199.09 11.5077 199.544 11.7213 200.117 11.7213Z" fill="#272839"/>
<path d="M204.872 12.3734V6.30237H205.76V7.58965L205.726 7.44349C205.906 7.02377 206.176 6.7071 206.536 6.49349C206.899 6.27613 207.267 6.16745 207.638 6.16745C207.746 6.16745 207.851 6.17682 207.952 6.19556C208.057 6.2143 208.155 6.24615 208.245 6.29112L208.121 7.17929C207.915 7.11558 207.711 7.08373 207.508 7.08373C207.381 7.08373 207.222 7.10996 207.031 7.16243C206.843 7.21115 206.656 7.31233 206.468 7.46598C206.285 7.61588 206.129 7.84073 206.002 8.14054C205.878 8.44034 205.816 8.83946 205.816 9.33788V12.3734H204.872Z" fill="#272839"/>
<path d="M213.342 12.3734V6.30237H214.286V12.3734H213.342ZM213.814 5.28491C213.597 5.28491 213.411 5.20808 213.258 5.05443C213.104 4.90078 213.027 4.71528 213.027 4.49792C213.027 4.27682 213.104 4.09131 213.258 3.94141C213.411 3.78776 213.597 3.71094 213.814 3.71094C214.035 3.71094 214.221 3.78776 214.371 3.94141C214.524 4.09131 214.601 4.27682 214.601 4.49792C214.601 4.71528 214.524 4.90078 214.371 5.05443C214.221 5.20808 214.035 5.28491 213.814 5.28491Z" fill="#272839"/>
<path d="M219.013 12.5083C218.436 12.5083 217.936 12.379 217.512 12.1204C217.093 11.8619 216.769 11.4965 216.54 11.0243C216.311 10.5483 216.197 9.98808 216.197 9.3435C216.197 8.69517 216.311 8.13304 216.54 7.6571C216.769 7.18117 217.091 6.81391 217.507 6.55533C217.923 6.29675 218.412 6.16745 218.974 6.16745C219.296 6.16745 219.618 6.21992 219.941 6.32485C220.267 6.42603 220.563 6.60404 220.829 6.85888C221.099 7.10996 221.314 7.45661 221.475 7.89882C221.64 8.33728 221.723 8.89192 221.723 9.56273H216.804V8.79823H220.902L220.632 9.15238C220.613 8.62022 220.527 8.193 220.374 7.87071C220.22 7.54843 220.019 7.31608 219.772 7.17367C219.529 7.02752 219.257 6.95444 218.957 6.95444C218.601 6.95444 218.294 7.04813 218.035 7.23551C217.777 7.41913 217.578 7.68896 217.439 8.04498C217.301 8.40099 217.231 8.83571 217.231 9.34912C217.231 10.1061 217.385 10.6907 217.692 11.103C218.003 11.5152 218.444 11.7213 219.013 11.7213C219.422 11.7213 219.765 11.6183 220.042 11.4121C220.323 11.206 220.529 10.9081 220.66 10.5184L221.588 10.8331C221.442 11.1854 221.247 11.4871 221.003 11.7382C220.76 11.9855 220.469 12.1766 220.132 12.3116C219.798 12.4427 219.425 12.5083 219.013 12.5083Z" fill="#272839"/>
<path d="M225.921 12.5083C225.43 12.5083 224.995 12.379 224.617 12.1204C224.242 11.8619 223.95 11.4946 223.74 11.0187C223.53 10.5427 223.425 9.98058 223.425 9.33226C223.425 8.68393 223.53 8.12367 223.74 7.65148C223.954 7.17554 224.248 6.81016 224.623 6.55533C224.997 6.29675 225.43 6.16745 225.921 6.16745C226.318 6.16745 226.712 6.26676 227.101 6.46538C227.491 6.664 227.785 6.99941 227.984 7.4716L227.877 7.51657V3.94141H228.822V12.3734H227.933V11.1086L227.961 11.1985C227.797 11.6407 227.523 11.9705 227.141 12.1879C226.759 12.4015 226.352 12.5083 225.921 12.5083ZM226.168 11.7213C226.487 11.7213 226.777 11.6389 227.04 11.474C227.302 11.3091 227.512 11.0524 227.669 10.7039C227.827 10.3516 227.905 9.90188 227.905 9.35474C227.905 8.53778 227.737 7.93442 227.399 7.54468C227.062 7.15119 226.656 6.95444 226.18 6.95444C225.677 6.95444 225.265 7.16243 224.943 7.57841C224.621 7.99064 224.46 8.58275 224.46 9.35474C224.46 10.1043 224.615 10.687 224.926 11.103C225.237 11.5152 225.651 11.7213 226.168 11.7213Z" fill="#272839"/>
<path d="M233.548 12.5083C232.971 12.5083 232.471 12.379 232.048 12.1204C231.628 11.8619 231.304 11.4965 231.075 11.0243C230.847 10.5483 230.732 9.98808 230.732 9.3435C230.732 8.69517 230.847 8.13304 231.075 7.6571C231.304 7.18117 231.626 6.81391 232.042 6.55533C232.458 6.29675 232.947 6.16745 233.509 6.16745C233.831 6.16745 234.154 6.21992 234.476 6.32485C234.802 6.42603 235.098 6.60404 235.364 6.85888C235.634 7.10996 235.849 7.45661 236.01 7.89882C236.175 8.33728 236.258 8.89192 236.258 9.56273H231.339V8.79823H235.437L235.167 9.15238C235.148 8.62022 235.062 8.193 234.909 7.87071C234.755 7.54843 234.555 7.31608 234.307 7.17367C234.064 7.02752 233.792 6.95444 233.492 6.95444C233.136 6.95444 232.829 7.04813 232.57 7.23551C232.312 7.41913 232.113 7.68896 231.974 8.04498C231.836 8.40099 231.766 8.83571 231.766 9.34912C231.766 10.1061 231.92 10.6907 232.227 11.103C232.538 11.5152 232.979 11.7213 233.548 11.7213C233.957 11.7213 234.3 11.6183 234.577 11.4121C234.858 11.206 235.064 10.9081 235.195 10.5184L236.123 10.8331C235.977 11.1854 235.782 11.4871 235.538 11.7382C235.295 11.9855 235.004 12.1766 234.667 12.3116C234.333 12.4427 233.961 12.5083 233.548 12.5083Z" fill="#272839"/>
<path d="M238.146 12.3734V6.30237H239.034V7.58965L239 7.44349C239.18 7.02377 239.45 6.7071 239.81 6.49349C240.173 6.27613 240.54 6.16745 240.911 6.16745C241.02 6.16745 241.125 6.17682 241.226 6.19556C241.331 6.2143 241.429 6.24615 241.519 6.29112L241.395 7.17929C241.189 7.11558 240.985 7.08373 240.782 7.08373C240.655 7.08373 240.496 7.10996 240.304 7.16243C240.117 7.21115 239.93 7.31233 239.742 7.46598C239.559 7.61588 239.403 7.84073 239.276 8.14054C239.152 8.44034 239.09 8.83946 239.09 9.33788V12.3734H238.146Z" fill="#272839"/>
<path d="M245.352 12.5083C244.775 12.5083 244.274 12.379 243.851 12.1204C243.431 11.8619 243.107 11.4965 242.878 11.0243C242.65 10.5483 242.536 9.98808 242.536 9.3435C242.536 8.69517 242.65 8.13304 242.878 7.6571C243.107 7.18117 243.429 6.81391 243.845 6.55533C244.261 6.29675 244.75 6.16745 245.312 6.16745C245.635 6.16745 245.957 6.21992 246.279 6.32485C246.605 6.42603 246.901 6.60404 247.167 6.85888C247.437 7.10996 247.653 7.45661 247.814 7.89882C247.979 8.33728 248.061 8.89192 248.061 9.56273H243.143V8.79823H247.24L246.971 9.15238C246.952 8.62022 246.866 8.193 246.712 7.87071C246.558 7.54843 246.358 7.31608 246.11 7.17367C245.867 7.02752 245.595 6.95444 245.295 6.95444C244.939 6.95444 244.632 7.04813 244.374 7.23551C244.115 7.41913 243.916 7.68896 243.778 8.04498C243.639 8.40099 243.57 8.83571 243.57 9.34912C243.57 10.1061 243.723 10.6907 244.031 11.103C244.342 11.5152 244.782 11.7213 245.352 11.7213C245.76 11.7213 246.103 11.6183 246.38 11.4121C246.661 11.206 246.867 10.9081 246.999 10.5184L247.926 10.8331C247.78 11.1854 247.585 11.4871 247.342 11.7382C247.098 11.9855 246.808 12.1766 246.47 12.3116C246.137 12.4427 245.764 12.5083 245.352 12.5083Z" fill="#272839"/>
<path d="M252.58 12.5083C252.003 12.5083 251.503 12.379 251.079 12.1204C250.659 11.8619 250.335 11.4965 250.107 11.0243C249.878 10.5483 249.764 9.98808 249.764 9.3435C249.764 8.69517 249.878 8.13304 250.107 7.6571C250.335 7.18117 250.657 6.81391 251.073 6.55533C251.489 6.29675 251.978 6.16745 252.541 6.16745C252.863 6.16745 253.185 6.21992 253.507 6.32485C253.833 6.42603 254.129 6.60404 254.395 6.85888C254.665 7.10996 254.881 7.45661 255.042 7.89882C255.207 8.33728 255.289 8.89192 255.289 9.56273H250.371V8.79823H254.469L254.199 9.15238C254.18 8.62022 254.094 8.193 253.94 7.87071C253.787 7.54843 253.586 7.31608 253.339 7.17367C253.095 7.02752 252.823 6.95444 252.524 6.95444C252.168 6.95444 251.86 7.04813 251.602 7.23551C251.343 7.41913 251.145 7.68896 251.006 8.04498C250.867 8.40099 250.798 8.83571 250.798 9.34912C250.798 10.1061 250.952 10.6907 251.259 11.103C251.57 11.5152 252.01 11.7213 252.58 11.7213C252.988 11.7213 253.331 11.6183 253.609 11.4121C253.89 11.206 254.096 10.9081 254.227 10.5184L255.154 10.8331C255.008 11.1854 254.813 11.4871 254.57 11.7382C254.326 11.9855 254.036 12.1766 253.698 12.3116C253.365 12.4427 252.992 12.5083 252.58 12.5083Z" fill="#272839"/>
<path d="M257.177 12.3734V6.30237H258.066V7.67397L258.026 7.42663C258.187 7.07811 258.442 6.78205 258.791 6.53846C259.139 6.29112 259.563 6.16745 260.061 6.16745C260.492 6.16745 260.863 6.26302 261.174 6.45414C261.485 6.64527 261.725 6.91884 261.893 7.27485C262.062 7.62712 262.146 8.05247 262.146 8.55089V12.3734H261.202V8.62397C261.202 8.12555 261.099 7.72269 260.893 7.41539C260.691 7.10809 260.355 6.95444 259.887 6.95444C259.381 6.95444 258.959 7.14744 258.622 7.53343C258.289 7.91568 258.122 8.47032 258.122 9.19735V12.3734H257.177Z" fill="#272839"/>
<path d="M69.0516 12.3995C69.852 5.81374 75.4128 0.713867 82.1537 0.713867C88.8946 0.713867 94.4555 5.81374 95.2558 12.3995H91.0766C90.323 8.20691 86.6877 5.02753 82.3167 5.02753C77.9457 5.02753 74.3104 8.20691 73.5568 12.3995H69.0516Z" fill="#CEC4F7"/>
<rect x="57.366" y="1.42188" width="4.24933" height="24.7878" fill="#171DA2"/>
<path d="M28.683 26.2102L41.0769 1.06836L53.4707 26.2102H48.5917L41.1326 11.0788L33.6734 26.2102H28.683Z" fill="#FFA592"/>
<path d="M4.42639 26.2096H0V1.42188L12.3939 13.6387L24.7878 1.42188V26.2096H20.3614V12.0452L12.3939 20.1897L4.42639 12.0452V26.2096Z" fill="#2BB989"/>
</svg>
